<svg width="23" height="24" viewBox="0 0 23 24" fill="none" xmlns="http://www.w3.org/2000/svg">
<path fill-rule="evenodd" clip-rule="evenodd" d="M9.58366 4.32751C9.58366 4.17251 9.78874 3.99951 10.0628 3.99951H12.9378C13.2119 3.99951 13.417 4.17251 13.417 4.32751V5.99951H9.58366V4.32751ZM20.1253 5.99951H19.167H15.3337V4.32751C15.3337 3.04351 14.2594 1.99951 12.9378 1.99951H10.0628C8.74128 1.99951 7.66699 3.04351 7.66699 4.32751V5.99951H3.83366H2.87533C2.34824 5.99951 1.91699 6.45051 1.91699 6.99951C1.91699 7.54951 2.34824 7.99951 2.87533 7.99951H3.83366V18.9995C3.83366 20.6545 5.12358 21.9995 6.70866 21.9995H16.292C17.8771 21.9995 19.167 20.6545 19.167 18.9995V7.99951H20.1253C20.6524 7.99951 21.0837 7.54951 21.0837 6.99951C21.0837 6.45051 20.6524 5.99951 20.1253 5.99951Z" fill="#5D5FEF"/>
<mask id="mask0_635_1658" style="mask-type:alpha" maskUnits="userSpaceOnUse" x="1" y="1" width="21" height="21">
<path fill-rule="evenodd" clip-rule="evenodd" d="M9.58366 4.32751C9.58366 4.17251 9.78874 3.99951 10.0628 3.99951H12.9378C13.2119 3.99951 13.417 4.17251 13.417 4.32751V5.99951H9.58366V4.32751ZM20.1253 5.99951H19.167H15.3337V4.32751C15.3337 3.04351 14.2594 1.99951 12.9378 1.99951H10.0628C8.74128 1.99951 7.66699 3.04351 7.66699 4.32751V5.99951H3.83366H2.87533C2.34824 5.99951 1.91699 6.45051 1.91699 6.99951C1.91699 7.54951 2.34824 7.99951 2.87533 7.99951H3.83366V18.9995C3.83366 20.6545 5.12358 21.9995 6.70866 21.9995H16.292C17.8771 21.9995 19.167 20.6545 19.167 18.9995V7.99951H20.1253C20.6524 7.99951 21.0837 7.54951 21.0837 6.99951C21.0837 6.45051 20.6524 5.99951 20.1253 5.99951Z" fill="white"/>
</mask>
<g mask="url(#mask0_635_1658)">
<rect width="23" height="24" fill="#5D5FEF"/>
</g>
</svg>
