<svg width="243" height="44" viewBox="0 0 243 44" fill="none" xmlns="http://www.w3.org/2000/svg">
<path d="M0 1.20751C0 0.540621 0.53093 0 1.18587 0H10.6728C11.3277 0 11.8587 0.540621 11.8587 1.20751V4.83004C11.8587 5.49693 11.3277 6.03756 10.6728 6.03756H1.18587C0.530931 6.03756 0 5.49693 0 4.83004V1.20751Z" fill="black"/>
<path d="M15.021 1.20751C15.021 0.540621 15.5519 0 16.2068 0H25.6938C26.3487 0 26.8796 0.540621 26.8796 1.20751V4.83004C26.8796 5.49693 26.3487 6.03756 25.6938 6.03756H17.1951L11.8587 11.4714V19.1189L17.1951 24.5527H25.6938C26.3487 24.5527 26.8796 25.0934 26.8796 25.7602V35.4203C26.8796 36.0872 26.3487 36.6278 25.6938 36.6278H16.2068C15.5519 36.6278 15.021 36.0872 15.021 35.4203V26.7665L9.68458 21.3327H1.18587C0.530931 21.3327 0 20.792 0 20.1252V10.4651C0 9.79821 0.53093 9.25758 1.18587 9.25758H9.68458L15.021 3.82378V1.20751Z" fill="#5D5FEF"/>
<path d="M1.18587 24.5526C0.53093 24.5526 0 25.0933 0 25.7601V35.4202C0 36.0871 0.530931 36.6277 1.18587 36.6277H10.6728C11.3277 36.6277 11.8587 36.0871 11.8587 35.4202V25.7601C11.8587 25.0933 11.3277 24.5526 10.6728 24.5526H1.18587Z" fill="#5D5FEF"/>
<path d="M39.7103 31.0233C39.7103 31.7946 39.5563 32.5298 39.2483 33.2289C38.9641 33.9039 38.5731 34.4945 38.0756 35.0007C37.5781 35.507 36.9858 35.9046 36.2987 36.1939C35.6353 36.4832 34.9365 36.6278 34.202 36.6278C33.4202 36.6278 32.6858 36.4832 31.9987 36.1939C31.3354 35.9046 30.7549 35.507 30.2573 35.0007C29.7599 34.4945 29.3689 33.9039 29.0846 33.2289C28.8003 32.5298 28.6582 31.7946 28.6582 31.0233V18.7293C28.6582 17.9579 28.8003 17.2347 29.0846 16.5597C29.3689 15.8606 29.7599 15.258 30.2573 14.7517C30.7549 14.2456 31.3354 13.8478 31.9987 13.5585C32.6858 13.2452 33.4202 13.0885 34.202 13.0885C34.9365 13.0885 35.6353 13.2452 36.2987 13.5585C36.9858 13.8478 37.5781 14.2456 38.0756 14.7517C38.5731 15.258 38.9641 15.8606 39.2483 16.5597C39.5563 17.2347 39.7103 17.9579 39.7103 18.7293V31.0233ZM36.512 18.7293C36.512 18.0784 36.275 17.524 35.8012 17.0659C35.351 16.5838 34.818 16.3427 34.202 16.3427C33.5386 16.3427 32.9819 16.5838 32.5317 17.0659C32.0816 17.524 31.8566 18.0784 31.8566 18.7293V31.0233C31.8566 31.6982 32.0816 32.2647 32.5317 32.7226C32.9819 33.1566 33.5386 33.3736 34.202 33.3736C34.818 33.3736 35.351 33.1566 35.8012 32.7226C36.275 32.2647 36.512 31.6982 36.512 31.0233V18.7293Z" fill="black"/>
<path d="M165.521 31.0233C165.521 31.7946 165.367 32.5298 165.059 33.2289C164.775 33.9039 164.384 34.4945 163.886 35.0007C163.389 35.507 162.796 35.9046 162.109 36.1939C161.446 36.4832 160.747 36.6278 160.013 36.6278C159.231 36.6278 158.496 36.4832 157.809 36.1939C157.146 35.9046 156.565 35.507 156.068 35.0007C155.57 34.4945 155.179 33.9039 154.895 33.2289C154.611 32.5298 154.469 31.7946 154.469 31.0233V18.7293C154.469 17.9579 154.611 17.2347 154.895 16.5597C155.179 15.8606 155.57 15.258 156.068 14.7517C156.565 14.2456 157.146 13.8478 157.809 13.5585C158.496 13.2452 159.231 13.0885 160.013 13.0885C160.747 13.0885 161.446 13.2452 162.109 13.5585C162.796 13.8478 163.389 14.2456 163.886 14.7517C164.384 15.258 164.775 15.8606 165.059 16.5597C165.367 17.2347 165.521 17.9579 165.521 18.7293V31.0233ZM162.323 18.7293C162.323 18.0784 162.086 17.524 161.612 17.0659C161.162 16.5838 160.629 16.3427 160.013 16.3427C159.349 16.3427 158.792 16.5838 158.342 17.0659C157.892 17.524 157.667 18.0784 157.667 18.7293V31.0233C157.667 31.6982 157.892 32.2647 158.342 32.7226C158.792 33.1566 159.349 33.3736 160.013 33.3736C160.629 33.3736 161.162 33.1566 161.612 32.7226C162.086 32.2647 162.323 31.6982 162.323 31.0233V18.7293Z" fill="black"/>
<path d="M191.001 31.0233C191.001 31.7946 190.847 32.5298 190.539 33.2289C190.255 33.9039 189.864 34.4945 189.367 35.0007C188.869 35.507 188.277 35.9046 187.59 36.1939C186.926 36.4832 186.227 36.6278 185.493 36.6278C184.711 36.6278 183.977 36.4832 183.29 36.1939C182.626 35.9046 182.046 35.507 181.548 35.0007C181.051 34.4945 180.66 33.9039 180.376 33.2289C180.091 32.5298 179.949 31.7946 179.949 31.0233V18.7293C179.949 17.9579 180.091 17.2347 180.376 16.5597C180.66 15.8606 181.051 15.258 181.548 14.7517C182.046 14.2456 182.626 13.8478 183.29 13.5585C183.977 13.2452 184.711 13.0885 185.493 13.0885C186.227 13.0885 186.926 13.2452 187.59 13.5585C188.277 13.8478 188.869 14.2456 189.367 14.7517C189.864 15.258 190.255 15.8606 190.539 16.5597C190.847 17.2347 191.001 17.9579 191.001 18.7293V31.0233ZM187.803 18.7293C187.803 18.0784 187.566 17.524 187.092 17.0659C186.642 16.5838 186.109 16.3427 185.493 16.3427C184.83 16.3427 184.273 16.5838 183.823 17.0659C183.373 17.524 183.148 18.0784 183.148 18.7293V31.0233C183.148 31.6982 183.373 32.2647 183.823 32.7226C184.273 33.1566 184.83 33.3736 185.493 33.3736C186.109 33.3736 186.642 33.1566 187.092 32.7226C187.566 32.2647 187.803 31.6982 187.803 31.0233V18.7293Z" fill="black"/>
<path d="M52.6672 36.1216H49.4688V19.0185C49.4688 18.3676 49.2082 17.8132 48.687 17.3552C48.1895 16.8731 47.6209 16.632 46.9813 16.632C46.3416 16.632 45.7611 16.8731 45.2399 17.3552C44.7187 17.8132 44.4581 18.3676 44.4581 19.0185V36.1216H41.2598V13.5948H43.3919L44.1027 14.6433C44.4107 14.2094 44.8135 13.896 45.311 13.7032C45.8322 13.4863 46.3889 13.3778 46.9813 13.3778C47.763 13.3778 48.4975 13.5345 49.1846 13.8478C49.8716 14.1371 50.4639 14.5348 50.9614 15.0411C51.4826 15.5473 51.8973 16.15 52.2052 16.849C52.5132 17.524 52.6672 18.2471 52.6672 19.0185V36.1216Z" fill="black"/>
<path d="M60.7053 33.4459C61.037 33.4459 61.3332 33.3737 61.5938 33.229C61.8544 33.0602 62.0439 32.8674 62.1624 32.6505L64.3657 35.073C63.9629 35.5552 63.4299 35.9288 62.7665 36.194C62.1268 36.4833 61.4872 36.6279 60.8475 36.6279C59.2602 36.6279 58.0282 36.1216 57.1516 35.1093C56.2988 34.0727 55.8722 32.7227 55.8722 31.0595V16.4513H53.8467V13.5948H55.8722V9.4727L59.0706 8.38794V13.5948H63.2996V16.4513H59.0706V31.0595C59.0706 32.6505 59.6155 33.4459 60.7053 33.4459Z" fill="black"/>
<path d="M75.2418 31.0233C75.2418 31.7946 75.0997 32.5298 74.8154 33.2289C74.5548 33.9039 74.1757 34.4945 73.6782 35.0007C73.2043 35.507 72.6358 35.9046 71.9724 36.1939C71.309 36.4832 70.5983 36.6278 69.8401 36.6278C69.082 36.6278 68.3713 36.4832 67.7079 36.1939C67.0445 35.9046 66.4641 35.507 65.9666 35.0007C65.4927 34.4945 65.1137 33.9039 64.8294 33.2289C64.5688 32.5298 64.4385 31.7946 64.4385 31.0233V18.7293C64.4385 17.9579 64.5806 17.2347 64.8649 16.5597C65.1492 15.8606 65.5401 15.258 66.0376 14.7517C66.5352 14.2456 67.1157 13.8478 67.779 13.5585C68.4661 13.2452 69.2005 13.0885 69.9823 13.0885C70.7168 13.0885 71.4156 13.2331 72.079 13.5224C72.766 13.7875 73.3584 14.1853 73.8558 14.7156C74.3534 15.2459 74.7443 15.8968 75.0286 16.6682C75.3366 17.4155 75.4906 18.2592 75.4906 19.1993C75.4906 20.718 75.3366 21.9956 75.0286 23.0322C74.7443 24.0687 74.2824 24.9847 73.6427 25.7803C73.003 26.5515 72.1856 27.2627 71.1906 27.9136C70.1956 28.5403 69.011 29.2153 67.6369 29.9384V31.0233C67.6369 31.6982 67.8383 32.2647 68.241 32.7226C68.6438 33.1566 69.1768 33.3736 69.8401 33.3736C70.4798 33.3736 71.0011 33.1566 71.4038 32.7226C71.8303 32.2647 72.0434 31.6982 72.0434 31.0233V30.6616L75.2418 29.5769V31.0233ZM72.2923 19.3801C72.2923 18.2471 72.0553 17.4637 71.5814 17.0298C71.1313 16.5718 70.5983 16.3427 69.9823 16.3427C69.3189 16.3427 68.7621 16.5838 68.312 17.0659C67.8619 17.524 67.6369 18.0784 67.6369 18.7293V26.2141C68.6082 25.7319 69.39 25.2379 69.9823 24.7316C70.5983 24.2254 71.0721 23.6951 71.4038 23.1406C71.7591 22.5862 71.9961 22.0077 72.1145 21.405C72.233 20.7782 72.2923 20.1033 72.2923 19.3801Z" fill="black"/>
<path d="M88.3421 36.1216H85.1437V19.0185C85.1437 18.3676 84.8831 17.8132 84.3618 17.3552C83.8643 16.8731 83.2957 16.632 82.6561 16.632C82.0164 16.632 81.436 16.8731 80.9147 17.3552C80.3935 17.8132 80.1329 18.3676 80.1329 19.0185V36.1216H76.9346V13.5948H79.0668L79.7776 14.6433C80.0856 14.2094 80.4883 13.896 80.9859 13.7032C81.507 13.4863 82.0638 13.3778 82.6561 13.3778C83.4379 13.3778 84.1724 13.5345 84.8594 13.8478C85.5464 14.1371 86.1387 14.5348 86.6362 15.0411C87.1575 15.5473 87.572 16.15 87.8801 16.849C88.188 17.524 88.3421 18.2471 88.3421 19.0185V36.1216Z" fill="black"/>
<path d="M101.249 30.6614C101.249 31.4328 101.119 32.1681 100.858 32.8671C100.597 33.542 100.23 34.1327 99.756 34.6389C99.3063 35.1451 98.7612 35.5429 98.1216 35.8322C97.4819 36.1214 96.783 36.2661 96.025 36.2661C95.1957 36.2661 94.485 36.1335 93.8927 35.8683C93.3241 35.6032 92.9332 35.3259 92.72 35.0366L92.0092 36.1214H89.877V7.12211L93.0753 6.03735V14.2092C93.2174 13.92 93.561 13.6668 94.1059 13.4499C94.6508 13.2089 95.2787 13.0883 95.9894 13.0883C96.7475 13.0883 97.4464 13.245 98.0861 13.5583C98.7495 13.8476 99.3063 14.2454 99.756 14.7516C100.23 15.2578 100.597 15.8605 100.858 16.5595C101.119 17.2345 101.249 17.9577 101.249 18.7291V30.6614ZM95.563 16.3426C94.8996 16.3426 94.3191 16.5837 93.8216 17.0658C93.3241 17.5238 93.0753 18.0783 93.0753 18.7291V30.6614C93.0753 31.3364 93.3241 31.9028 93.8216 32.3609C94.3191 32.7948 94.8996 33.0117 95.563 33.0117C96.2026 33.0117 96.7712 32.7948 97.2687 32.3609C97.7899 31.9028 98.0505 31.3364 98.0505 30.6614V18.7291C98.0505 18.0783 97.7899 17.5238 97.2687 17.0658C96.7712 16.5837 96.2026 16.3426 95.563 16.3426Z" fill="black"/>
<path d="M113.591 36.1216H111.459L110.748 34.8199C110.487 35.302 110.085 35.6877 109.539 35.977C109.019 36.2663 108.296 36.4109 107.372 36.4109C106.779 36.4109 106.187 36.2903 105.595 36.0493C105.026 35.8082 104.505 35.4707 104.031 35.0368C103.581 34.5789 103.202 34.0244 102.895 33.3736C102.61 32.7226 102.468 31.9754 102.468 31.1317C102.468 29.9505 102.61 28.9139 102.895 28.0221C103.178 27.1302 103.546 26.3346 103.996 25.6356C104.47 24.9365 104.991 24.3218 105.56 23.7915C106.152 23.2612 106.744 22.767 107.337 22.309C107.929 21.8509 108.485 21.4291 109.007 21.0434C109.551 20.6577 110.014 20.26 110.392 19.8502V18.7293C110.392 18.0784 110.226 17.524 109.895 17.0659C109.587 16.5838 109.114 16.3427 108.473 16.3427C107.266 16.3427 106.508 16.8851 106.199 17.97L103.463 16.0897C103.629 15.7281 103.865 15.3665 104.173 15.0049C104.482 14.6433 104.848 14.3299 105.275 14.0648C105.701 13.7755 106.176 13.5466 106.696 13.3778C107.242 13.1849 107.834 13.0885 108.473 13.0885C109.232 13.0885 109.919 13.2452 110.535 13.5585C111.174 13.8478 111.72 14.2456 112.169 14.7517C112.62 15.258 112.963 15.8606 113.2 16.5597C113.461 17.2347 113.591 17.9579 113.591 18.7293V36.1216ZM110.392 24.0446C109.99 24.3097 109.516 24.6352 108.971 25.0208C108.426 25.4065 107.905 25.8767 107.408 26.4311C106.934 26.9856 106.519 27.6243 106.164 28.3475C105.832 29.0466 105.666 29.8541 105.666 30.7701C105.666 31.4451 105.891 32.0115 106.342 32.4696C106.791 32.9276 107.349 33.1566 108.012 33.1566C108.32 33.1566 108.616 33.0843 108.9 32.9397C109.208 32.7709 109.468 32.566 109.682 32.325C109.895 32.0598 110.061 31.7705 110.18 31.4572C110.321 31.1197 110.392 30.7822 110.392 30.4447V24.0446Z" fill="black"/>
<path d="M126.266 30.4447C126.266 31.2402 126.148 32.0116 125.91 32.7589C125.697 33.5061 125.354 34.169 124.88 34.7475C124.406 35.3261 123.802 35.7841 123.067 36.1216C122.357 36.4591 121.504 36.6278 120.509 36.6278C119.703 36.6278 118.957 36.4832 118.269 36.1939C117.606 35.9288 117.026 35.5552 116.528 35.073C116.031 34.5909 115.64 34.0124 115.356 33.3374C115.095 32.6383 114.965 31.8669 114.965 31.0233V29.4684L118.164 30.1916V31.0233C118.164 31.7223 118.4 32.2887 118.874 32.7226C119.348 33.1566 119.929 33.3736 120.616 33.3736C121.302 33.3736 121.871 33.1686 122.321 32.7589C122.771 32.325 122.996 31.7464 122.996 31.0233C122.996 30.4688 122.913 29.9867 122.747 29.5769C122.606 29.143 122.404 28.7573 122.143 28.4198C121.528 27.6966 120.817 27.0337 120.011 26.4311C119.229 25.8285 118.483 25.1776 117.772 24.4785C117.086 23.7554 116.493 22.9477 115.996 22.0559C115.521 21.1639 115.285 20.0671 115.285 18.7654C115.285 17.97 115.415 17.2226 115.675 16.5236C115.936 15.8245 116.304 15.2219 116.777 14.7156C117.274 14.2094 117.855 13.8117 118.518 13.5224C119.182 13.2331 119.917 13.0885 120.722 13.0885C121.551 13.0885 122.286 13.2331 122.925 13.5224C123.565 13.8117 124.098 14.2094 124.525 14.7156C124.975 15.2219 125.307 15.8245 125.519 16.5236C125.756 17.1986 125.875 17.9337 125.875 18.7293V20.2841L122.783 19.5609V18.7293C122.783 18.1025 122.582 17.548 122.179 17.0659C121.777 16.5838 121.255 16.3427 120.616 16.3427C119.929 16.3427 119.395 16.5959 119.017 17.1021C118.637 17.5843 118.447 18.1507 118.447 18.8015C118.447 19.5489 118.637 20.2238 119.017 20.8264C119.419 21.405 119.905 21.9715 120.473 22.5259C121.041 23.0562 121.67 23.5987 122.357 24.153C123.044 24.6834 123.671 25.2619 124.24 25.8887C124.809 26.4914 125.283 27.1663 125.661 27.9136C126.065 28.6609 126.266 29.5045 126.266 30.4447Z" fill="black"/>
<path d="M138.301 31.0233C138.301 31.7946 138.159 32.5298 137.875 33.2289C137.614 33.9039 137.235 34.4945 136.738 35.0007C136.265 35.507 135.695 35.9046 135.032 36.1939C134.369 36.4832 133.658 36.6278 132.9 36.6278C132.142 36.6278 131.431 36.4832 130.768 36.1939C130.104 35.9046 129.524 35.507 129.026 35.0007C128.552 34.4945 128.173 33.9039 127.889 33.2289C127.628 32.5298 127.498 31.7946 127.498 31.0233V18.7293C127.498 17.9579 127.64 17.2347 127.925 16.5597C128.209 15.8606 128.6 15.258 129.097 14.7517C129.595 14.2456 130.175 13.8478 130.838 13.5585C131.526 13.2452 132.26 13.0885 133.042 13.0885C133.776 13.0885 134.475 13.2331 135.139 13.5224C135.826 13.7875 136.418 14.1853 136.916 14.7156C137.413 15.2459 137.804 15.8968 138.089 16.6682C138.396 17.4155 138.55 18.2592 138.55 19.1993C138.55 20.718 138.396 21.9956 138.089 23.0322C137.804 24.0687 137.342 24.9847 136.702 25.7803C136.063 26.5515 135.246 27.2627 134.251 27.9136C133.255 28.5403 132.071 29.2153 130.697 29.9384V31.0233C130.697 31.6982 130.898 32.2647 131.301 32.7226C131.704 33.1566 132.237 33.3736 132.9 33.3736C133.54 33.3736 134.061 33.1566 134.464 32.7226C134.89 32.2647 135.103 31.6982 135.103 31.0233V30.6616L138.301 29.5769V31.0233ZM135.352 19.3801C135.352 18.2471 135.115 17.4637 134.641 17.0298C134.191 16.5718 133.658 16.3427 133.042 16.3427C132.379 16.3427 131.822 16.5838 131.372 17.0659C130.921 17.524 130.697 18.0784 130.697 18.7293V26.2141C131.668 25.7319 132.45 25.2379 133.042 24.7316C133.658 24.2254 134.132 23.6951 134.464 23.1406C134.819 22.5862 135.056 22.0077 135.175 21.405C135.293 20.7782 135.352 20.1033 135.352 19.3801Z" fill="black"/>
<path d="M167.213 30.9941C167.213 31.7655 167.343 32.5007 167.604 33.1998C167.865 33.8747 168.232 34.4654 168.706 34.9715C169.156 35.4778 169.701 35.8755 170.34 36.1648C170.98 36.454 171.679 36.5987 172.437 36.5987C173.266 36.5987 173.977 36.4661 174.569 36.201C175.138 35.9358 175.529 35.6586 175.742 35.3693L176.453 36.454H178.585V7.45475L175.387 6.37V14.5418C175.244 14.2526 174.901 13.9995 174.356 13.7825C173.811 13.5415 173.183 13.421 172.473 13.421C171.714 13.421 171.016 13.5776 170.376 13.891C169.712 14.1803 169.156 14.5781 168.706 15.0842C168.232 15.5904 167.865 16.1931 167.604 16.8921C167.343 17.5671 167.213 18.2903 167.213 19.0617V30.9941ZM172.899 16.6752C173.562 16.6752 174.143 16.9163 174.64 17.3984C175.138 17.8564 175.387 18.4109 175.387 19.0617V30.9941C175.387 31.6691 175.138 32.2355 174.64 32.6935C174.143 33.1274 173.562 33.3444 172.899 33.3444C172.259 33.3444 171.691 33.1274 171.193 32.6935C170.672 32.2355 170.411 31.6691 170.411 30.9941V19.0617C170.411 18.4109 170.672 17.8564 171.193 17.3984C171.691 16.9163 172.259 16.6752 172.899 16.6752Z" fill="black"/>
<path d="M143.327 9.47336V6.37H159.252V9.47336H152.882V36.6278H149.697V9.47336H143.327Z" fill="black"/>
<path fill-rule="evenodd" clip-rule="evenodd" d="M227.893 30.3179L217.822 32.5806V15.5382L227.893 13.2771V30.3179ZM204.393 13.2771L214.465 15.5382V32.5806L204.393 30.3179V13.2771ZM230.621 9.86631C230.221 9.54907 229.701 9.42821 229.202 9.54067L216.143 12.4748L203.084 9.54067C202.584 9.42653 202.065 9.54907 201.666 9.86631C201.268 10.1869 201.036 10.6687 201.036 11.1789V31.6607C201.036 32.4463 201.58 33.1261 202.345 33.2973L215.774 36.3154C215.898 36.3439 216.021 36.3573 216.143 36.3573C216.266 36.3573 216.388 36.3439 216.512 36.3154L229.941 33.2973C230.706 33.1261 231.25 32.4463 231.25 31.6607V11.1789C231.25 10.6687 231.019 10.1869 230.621 9.86631V9.86631Z" fill="black"/>
<mask id="mask0_671_1919" style="mask-type:alpha" maskUnits="userSpaceOnUse" x="201" y="9" width="31" height="28">
<path fill-rule="evenodd" clip-rule="evenodd" d="M227.893 30.3179L217.822 32.5806V15.5382L227.893 13.2771V30.3179ZM204.393 13.2771L214.465 15.5382V32.5806L204.393 30.3179V13.2771ZM230.621 9.86631C230.221 9.54907 229.701 9.42821 229.202 9.54067L216.143 12.4748L203.084 9.54067C202.584 9.42653 202.065 9.54907 201.666 9.86631C201.268 10.1869 201.036 10.6687 201.036 11.1789V31.6607C201.036 32.4463 201.58 33.1261 202.345 33.2973L215.774 36.3154C215.898 36.3439 216.021 36.3573 216.143 36.3573C216.266 36.3573 216.388 36.3439 216.512 36.3154L229.941 33.2973C230.706 33.1261 231.25 32.4463 231.25 31.6607V11.1789C231.25 10.6687 231.019 10.1869 230.621 9.86631V9.86631Z" fill="white"/>
</mask>
<g mask="url(#mask0_671_1919)">
<rect x="196" y="2.78564" width="40.2854" height="40.2854" fill="black"/>
</g>
<path fill-rule="evenodd" clip-rule="evenodd" d="M234.627 12.3104L231.799 9.48312L233.843 7.43843L236.669 10.2647L234.627 12.3104ZM238.178 8.80541L238.177 8.80436L235.304 5.93192C234.527 5.15664 233.191 5.11992 232.455 5.85953L223.017 15.2972C222.675 15.6382 222.463 16.0914 222.419 16.5708L222.022 20.9456C221.994 21.2551 222.105 21.5614 222.325 21.7817C222.523 21.98 222.791 22.0891 223.067 22.0891C223.099 22.0891 223.131 22.0881 223.162 22.0849L227.537 21.6873C228.017 21.6432 228.469 21.4324 228.81 21.0914L238.249 11.6527C239.013 10.8868 238.98 9.60902 238.178 8.80541V8.80541Z" fill="black"/>
<mask id="mask1_671_1919" style="mask-type:alpha" maskUnits="userSpaceOnUse" x="222" y="5" width="17" height="18">
<path fill-rule="evenodd" clip-rule="evenodd" d="M234.627 12.3104L231.799 9.48312L233.843 7.43843L236.669 10.2647L234.627 12.3104ZM238.178 8.80541L238.177 8.80436L235.304 5.93192C234.527 5.15664 233.191 5.11992 232.455 5.85953L223.017 15.2972C222.675 15.6382 222.463 16.0914 222.419 16.5708L222.022 20.9456C221.994 21.2551 222.105 21.5614 222.325 21.7817C222.523 21.98 222.791 22.0891 223.067 22.0891C223.099 22.0891 223.131 22.0881 223.162 22.0849L227.537 21.6873C228.017 21.6432 228.469 21.4324 228.81 21.0914L238.249 11.6527C239.013 10.8868 238.98 9.60902 238.178 8.80541V8.80541Z" fill="white"/>
</mask>
<g mask="url(#mask1_671_1919)">
<rect x="217.821" y="1.10742" width="25.1784" height="25.1784" fill="black"/>
</g>
</svg>
