<svg width="24" height="24" viewBox="0 0 24 24" fill="none" xmlns="http://www.w3.org/2000/svg">
<path fill-rule="evenodd" clip-rule="evenodd" d="M3.09763 16.4039L12.5274 6.97417C12.8235 6.67808 13.3015 6.67799 13.5964 6.97274L17.0286 10.4038C17.3206 10.6957 17.3229 11.1772 17.0274 11.4727L7.59763 20.9038C7.30154 21.2 6.72981 21.439 6.31942 21.439H3.30558C2.88613 21.439 2.5625 21.1064 2.5625 20.696V17.6821C2.5625 17.2627 2.80209 16.6995 3.09763 16.4039ZM18.629 3.00608L20.9969 5.3732C21.582 5.95806 21.5861 6.91673 20.997 7.50524L19.585 8.91584C19.2977 9.20285 18.8232 9.19919 18.5283 8.90444L15.0961 5.47334C14.8041 5.1815 14.7962 4.70568 15.0848 4.41708L16.4961 3.00578C17.0934 2.40839 18.0398 2.4171 18.629 3.00608Z" fill="#5D5FEF"/>
</svg>
