<svg width="2684" height="407" viewBox="0 0 2684 407" fill="none" xmlns="http://www.w3.org/2000/svg">
<path fill-rule="evenodd" clip-rule="evenodd" d="M2480.5 271.333C2471.14 271.333 2463.54 263.736 2463.54 254.375C2463.54 245.014 2471.14 237.416 2480.5 237.416C2489.86 237.416 2497.46 245.014 2497.46 254.375C2497.46 263.736 2489.86 271.333 2480.5 271.333M2480.5 203.5C2452.45 203.5 2429.63 226.326 2429.63 254.375C2429.63 282.424 2452.45 305.25 2480.5 305.25C2508.55 305.25 2531.38 282.424 2531.38 254.375C2531.38 226.326 2508.55 203.5 2480.5 203.5M2582.25 322.208C2582.25 331.569 2574.65 339.166 2565.29 339.166H2395.71C2386.35 339.166 2378.75 331.569 2378.75 322.208V186.541C2378.75 177.18 2386.35 169.583 2395.71 169.583H2412.67H2446.58H2514.42H2548.33H2565.29C2574.65 169.583 2582.25 177.18 2582.25 186.541V322.208ZM2446.58 103.632C2446.58 83.8927 2461.79 67.8332 2480.5 67.8332C2499.21 67.8332 2514.42 83.8927 2514.42 103.632V135.667H2446.58V103.632ZM2565.29 135.667H2548.33V103.632C2548.33 65.2046 2517.91 33.9165 2480.5 33.9165C2443.09 33.9165 2412.67 65.2046 2412.67 103.632V135.667H2395.71C2367.66 135.667 2344.83 158.492 2344.83 186.542V322.208C2344.83 350.257 2367.66 373.083 2395.71 373.083H2565.29C2593.34 373.083 2616.17 350.257 2616.17 322.208V186.542C2616.17 158.492 2593.34 135.667 2565.29 135.667V135.667Z" fill="#151718"/>
<mask id="mask0_107_17" style="mask-type:alpha" maskUnits="userSpaceOnUse" x="2344" y="33" width="273" height="341">
<path fill-rule="evenodd" clip-rule="evenodd" d="M2480.5 271.333C2471.14 271.333 2463.54 263.736 2463.54 254.375C2463.54 245.014 2471.14 237.416 2480.5 237.416C2489.86 237.416 2497.46 245.014 2497.46 254.375C2497.46 263.736 2489.86 271.333 2480.5 271.333M2480.5 203.5C2452.45 203.5 2429.63 226.326 2429.63 254.375C2429.63 282.424 2452.45 305.25 2480.5 305.25C2508.55 305.25 2531.38 282.424 2531.38 254.375C2531.38 226.326 2508.55 203.5 2480.5 203.5M2582.25 322.208C2582.25 331.569 2574.65 339.166 2565.29 339.166H2395.71C2386.35 339.166 2378.75 331.569 2378.75 322.208V186.541C2378.75 177.18 2386.35 169.583 2395.71 169.583H2412.67H2446.58H2514.42H2548.33H2565.29C2574.65 169.583 2582.25 177.18 2582.25 186.541V322.208ZM2446.58 103.632C2446.58 83.8927 2461.79 67.8332 2480.5 67.8332C2499.21 67.8332 2514.42 83.8927 2514.42 103.632V135.667H2446.58V103.632ZM2565.29 135.667H2548.33V103.632C2548.33 65.2046 2517.91 33.9165 2480.5 33.9165C2443.09 33.9165 2412.67 65.2046 2412.67 103.632V135.667H2395.71C2367.66 135.667 2344.83 158.492 2344.83 186.542V322.208C2344.83 350.257 2367.66 373.083 2395.71 373.083H2565.29C2593.34 373.083 2616.17 350.257 2616.17 322.208V186.542C2616.17 158.492 2593.34 135.667 2565.29 135.667V135.667Z" fill="white"/>
</mask>
<g mask="url(#mask0_107_17)">
<rect x="2277" y="73.5703" width="369.202" height="333.43" fill="#151718"/>
</g>
<path d="M0 13.1868C0 5.90394 5.896 0 13.1691 0H118.522C125.795 0 131.691 5.90394 131.691 13.1868V52.7473C131.691 60.0301 125.795 65.9341 118.522 65.9341H13.1691C5.896 65.9341 0 60.0301 0 52.7473V13.1868Z" fill="#151718"/>
<path d="M166.808 13.1868C166.808 5.90394 172.704 0 179.978 0H285.33C292.603 0 298.499 5.90394 298.499 13.1868V52.7473C298.499 60.0301 292.603 65.9341 285.33 65.9341H190.952L131.691 125.275V208.791L190.952 268.132H285.33C292.603 268.132 298.499 274.036 298.499 281.319V386.813C298.499 394.096 292.603 400 285.33 400H179.978C172.704 400 166.808 394.096 166.808 386.813V292.308L107.548 232.967H13.1691C5.896 232.967 0 227.063 0 219.78V114.286C0 107.003 5.896 101.099 13.1691 101.099H107.548L166.808 41.7582V13.1868Z" fill="#119F86" fill-opacity="0.85"/>
<path d="M13.1691 268.132C5.896 268.132 0 274.036 0 281.319V386.813C0 394.096 5.896 400 13.1691 400H118.522C125.795 400 131.691 394.096 131.691 386.813V281.319C131.691 274.036 125.795 268.132 118.522 268.132H13.1691Z" fill="#119F86" fill-opacity="0.85"/>
<path d="M452.734 305.827C452.734 314.251 451.024 322.28 447.604 329.915C444.447 337.286 440.105 343.735 434.58 349.264C429.055 354.792 422.478 359.136 414.848 362.295C407.482 365.454 399.72 367.033 391.564 367.033C382.882 367.033 374.726 365.454 367.096 362.295C359.73 359.136 353.284 354.792 347.759 349.264C342.234 343.735 337.893 337.286 334.736 329.915C331.579 322.28 330 314.251 330 305.827V171.569C330 163.145 331.579 155.247 334.736 147.876C337.893 140.242 342.234 133.661 347.759 128.133C353.284 122.604 359.73 118.261 367.096 115.102C374.726 111.679 382.882 109.968 391.564 109.968C399.72 109.968 407.482 111.679 414.848 115.102C422.478 118.261 429.055 122.604 434.58 128.133C440.105 133.661 444.447 140.242 447.604 147.876C451.024 155.247 452.734 163.145 452.734 171.569V305.827ZM417.216 171.569C417.216 164.461 414.585 158.407 409.323 153.405C404.324 148.14 398.405 145.507 391.564 145.507C384.198 145.507 378.015 148.14 373.016 153.405C368.017 158.407 365.518 164.461 365.518 171.569V305.827C365.518 313.198 368.017 319.385 373.016 324.387C378.015 329.125 384.198 331.494 391.564 331.494C398.405 331.494 404.324 329.125 409.323 324.387C414.585 319.385 417.216 313.198 417.216 305.827V171.569Z" fill="#151718"/>
<path d="M596.606 361.505H561.088V174.728C561.088 167.62 558.194 161.566 552.406 156.564C546.881 151.299 540.567 148.666 533.463 148.666C526.36 148.666 519.914 151.299 514.126 156.564C508.338 161.566 505.444 167.62 505.444 174.728V361.505H469.926V115.497H493.604L501.497 126.948C504.917 122.209 509.39 118.787 514.915 116.681C520.703 114.312 526.886 113.127 533.463 113.127C542.145 113.127 550.301 114.838 557.931 118.261C565.561 121.42 572.138 125.763 577.663 131.292C583.451 136.82 588.056 143.401 591.476 151.035C594.896 158.407 596.606 166.304 596.606 174.728V361.505Z" fill="#151718"/>
<path d="M685.869 332.284C689.553 332.284 692.842 331.494 695.736 329.915C698.63 328.072 700.734 325.966 702.05 323.597L726.518 350.054C722.045 355.319 716.125 359.399 708.759 362.295C701.655 365.454 694.552 367.033 687.448 367.033C669.821 367.033 656.14 361.505 646.405 350.448C636.934 339.129 632.198 324.386 632.198 306.222V146.692H609.703V115.497H632.198V70.4806L667.716 58.6343V115.497H714.678V146.692H667.716V306.222C667.716 323.597 673.767 332.284 685.869 332.284Z" fill="#151718"/>
<path d="M847.312 305.827C847.312 314.251 845.734 322.28 842.577 329.915C839.683 337.286 835.473 343.735 829.948 349.264C824.686 354.792 818.372 359.136 811.005 362.295C803.639 365.454 795.746 367.033 787.327 367.033C778.908 367.033 771.015 365.454 763.648 362.295C756.281 359.136 749.836 354.792 744.311 349.264C739.049 343.735 734.839 337.286 731.682 329.915C728.788 322.28 727.341 314.251 727.341 305.827V171.569C727.341 163.145 728.919 155.247 732.077 147.876C735.234 140.242 739.575 133.661 745.1 128.133C750.625 122.604 757.071 118.261 764.437 115.102C772.067 111.679 780.223 109.968 788.905 109.968C797.061 109.968 804.822 111.548 812.189 114.707C819.819 117.603 826.396 121.946 831.921 127.738C837.446 133.529 841.788 140.637 844.945 149.061C848.365 157.222 850.075 166.436 850.075 176.702C850.075 193.287 848.365 207.24 844.945 218.559C841.788 229.879 836.657 239.883 829.553 248.57C822.45 256.994 813.373 264.76 802.323 271.868C791.273 278.712 778.118 286.084 762.859 293.981V305.827C762.859 313.198 765.095 319.385 769.568 324.387C774.04 329.125 779.96 331.494 787.327 331.494C794.43 331.494 800.218 329.125 804.691 324.387C809.427 319.385 811.795 313.198 811.795 305.827V301.879L847.312 290.032V305.827ZM814.557 178.677C814.557 166.304 811.926 157.748 806.664 153.01C801.665 148.008 795.746 145.507 788.905 145.507C781.539 145.507 775.356 148.14 770.357 153.405C765.358 158.407 762.859 164.461 762.859 171.569V253.309C773.646 248.044 782.328 242.647 788.905 237.119C795.746 231.59 801.008 225.799 804.691 219.744C808.637 213.689 811.268 207.371 812.584 200.79C813.899 193.945 814.557 186.574 814.557 178.677Z" fill="#151718"/>
<path d="M992.791 361.505H957.273V174.728C957.273 167.62 954.379 161.566 948.591 156.564C943.066 151.299 936.752 148.666 929.648 148.666C922.544 148.666 916.098 151.299 910.31 156.564C904.522 161.566 901.628 167.62 901.628 174.728V361.505H866.11V115.497H889.789L897.682 126.948C901.102 122.209 905.575 118.787 911.1 116.681C916.888 114.312 923.071 113.127 929.648 113.127C938.33 113.127 946.486 114.838 954.116 118.261C961.746 121.42 968.323 125.763 973.848 131.292C979.636 136.82 984.24 143.401 987.66 151.035C991.081 158.407 992.791 166.304 992.791 174.728V361.505Z" fill="#151718"/>
<path d="M1136.12 301.879C1136.12 310.303 1134.67 318.332 1131.78 325.966C1128.89 333.337 1124.81 339.787 1119.55 345.315C1114.55 350.843 1108.5 355.187 1101.39 358.346C1094.29 361.505 1086.53 363.084 1078.11 363.084C1068.9 363.084 1061.01 361.637 1054.43 358.741C1048.11 355.845 1043.77 352.818 1041.41 349.659L1033.51 361.505H1009.83V44.8136L1045.35 32.9673V122.209C1046.93 119.05 1050.75 116.286 1056.8 113.917C1062.85 111.285 1069.82 109.968 1077.71 109.968C1086.13 109.968 1093.89 111.679 1101 115.102C1108.36 118.261 1114.55 122.604 1119.55 128.133C1124.81 133.661 1128.89 140.242 1131.78 147.876C1134.67 155.247 1136.12 163.145 1136.12 171.569V301.879ZM1072.98 145.507C1065.61 145.507 1059.16 148.14 1053.64 153.405C1048.11 158.407 1045.35 164.461 1045.35 171.569V301.879C1045.35 309.25 1048.11 315.436 1053.64 320.438C1059.16 325.176 1065.61 327.546 1072.98 327.546C1080.08 327.546 1086.4 325.176 1091.92 320.438C1097.71 315.436 1100.6 309.25 1100.6 301.879V171.569C1100.6 164.461 1097.71 158.407 1091.92 153.405C1086.4 148.14 1080.08 145.507 1072.98 145.507Z" fill="#151718"/>
<path d="M1273.2 361.505H1249.52L1241.63 347.289C1238.73 352.554 1234.26 356.766 1228.21 359.925C1222.42 363.084 1214.4 364.664 1204.14 364.664C1197.56 364.664 1190.98 363.348 1184.41 360.715C1178.09 358.083 1172.3 354.397 1167.04 349.659C1162.04 344.657 1157.83 338.602 1154.41 331.494C1151.26 324.386 1149.68 316.226 1149.68 307.012C1149.68 294.113 1151.26 282.793 1154.41 273.052C1157.57 263.312 1161.65 254.625 1166.65 246.991C1171.91 239.356 1177.7 232.643 1184.01 226.852C1190.59 221.06 1197.17 215.664 1203.74 210.662C1210.32 205.66 1216.5 201.053 1222.29 196.841C1228.34 192.629 1233.47 188.286 1237.68 183.81V171.569C1237.68 164.461 1235.84 158.407 1232.16 153.405C1228.74 148.14 1223.48 145.507 1216.37 145.507C1202.95 145.507 1194.53 151.43 1191.11 163.277L1160.73 142.743C1162.57 138.794 1165.2 134.845 1168.62 130.897C1172.04 126.948 1176.12 123.526 1180.85 120.63C1185.59 117.471 1190.85 114.97 1196.64 113.127C1202.69 111.021 1209.27 109.968 1216.37 109.968C1224.79 109.968 1232.42 111.679 1239.26 115.102C1246.36 118.261 1252.42 122.604 1257.41 128.133C1262.41 133.661 1266.23 140.242 1268.86 147.876C1271.75 155.247 1273.2 163.145 1273.2 171.569V361.505ZM1237.68 229.616C1233.21 232.512 1227.95 236.066 1221.9 240.278C1215.85 244.49 1210.06 249.623 1204.53 255.678C1199.27 261.733 1194.67 268.709 1190.72 276.606C1187.04 284.241 1185.19 293.06 1185.19 303.063C1185.19 310.434 1187.69 316.621 1192.69 321.622C1197.69 326.624 1203.87 329.125 1211.24 329.125C1214.66 329.125 1217.95 328.335 1221.11 326.756C1224.53 324.913 1227.42 322.675 1229.79 320.043C1232.16 317.147 1234 313.988 1235.31 310.566C1236.89 306.88 1237.68 303.195 1237.68 299.509V229.616Z" fill="#151718"/>
<path d="M1413.94 299.509C1413.94 308.197 1412.63 316.621 1410 324.781C1407.63 332.942 1403.81 340.182 1398.55 346.5C1393.29 352.818 1386.58 357.819 1378.43 361.505C1370.53 365.19 1361.06 367.033 1350.01 367.033C1341.07 367.033 1332.78 365.454 1325.15 362.295C1317.78 359.399 1311.34 355.319 1305.81 350.054C1300.29 344.789 1295.94 338.47 1292.79 331.099C1289.89 323.465 1288.45 315.041 1288.45 305.827V288.848L1323.96 296.745V305.827C1323.96 313.462 1326.6 319.648 1331.86 324.387C1337.12 329.125 1343.56 331.494 1351.19 331.494C1358.82 331.494 1365.14 329.257 1370.14 324.781C1375.14 320.043 1377.64 313.725 1377.64 305.827C1377.64 299.772 1376.71 294.507 1374.87 290.032C1373.29 285.294 1371.06 281.082 1368.16 277.396C1361.32 269.499 1353.43 262.259 1344.49 255.678C1335.8 249.097 1327.52 241.989 1319.62 234.355C1311.99 226.457 1305.42 217.638 1299.89 207.898C1294.63 198.157 1292 186.18 1292 171.964C1292 163.277 1293.45 155.116 1296.34 147.482C1299.23 139.847 1303.31 133.266 1308.57 127.738C1314.1 122.209 1320.54 117.866 1327.91 114.707C1335.28 111.548 1343.43 109.968 1352.38 109.968C1361.59 109.968 1369.74 111.548 1376.85 114.707C1383.95 117.866 1389.87 122.209 1394.61 127.738C1399.6 133.266 1403.29 139.847 1405.66 147.482C1408.29 154.853 1409.6 162.882 1409.6 171.569V188.549L1375.27 180.651V171.569C1375.27 164.725 1373.03 158.67 1368.56 153.405C1364.09 148.14 1358.3 145.507 1351.19 145.507C1343.56 145.507 1337.65 148.271 1333.44 153.8C1329.23 159.065 1327.12 165.251 1327.12 172.359C1327.12 180.52 1329.23 187.891 1333.44 194.472C1337.91 200.79 1343.3 206.976 1349.62 213.031C1355.93 218.823 1362.9 224.746 1370.53 230.801C1378.16 236.592 1385.13 242.91 1391.45 249.755C1397.76 256.336 1403.02 263.707 1407.23 271.868C1411.71 280.029 1413.94 289.242 1413.94 299.509Z" fill="#151718"/>
<path d="M1547.57 305.827C1547.57 314.251 1545.99 322.28 1542.84 329.915C1539.94 337.286 1535.73 343.735 1530.21 349.264C1524.95 354.792 1518.63 359.136 1511.27 362.295C1503.9 365.454 1496.01 367.033 1487.59 367.033C1479.17 367.033 1471.28 365.454 1463.91 362.295C1456.54 359.136 1450.1 354.792 1444.57 349.264C1439.31 343.735 1435.1 337.286 1431.94 329.915C1429.05 322.28 1427.6 314.251 1427.6 305.827V171.569C1427.6 163.145 1429.18 155.247 1432.34 147.876C1435.49 140.242 1439.84 133.661 1445.36 128.133C1450.89 122.604 1457.33 118.261 1464.7 115.102C1472.33 111.679 1480.48 109.968 1489.17 109.968C1497.32 109.968 1505.08 111.548 1512.45 114.707C1520.08 117.603 1526.66 121.946 1532.18 127.738C1537.71 133.529 1542.05 140.637 1545.2 149.061C1548.63 157.222 1550.34 166.436 1550.34 176.702C1550.34 193.287 1548.63 207.24 1545.2 218.559C1542.05 229.879 1536.92 239.883 1529.81 248.57C1522.71 256.994 1513.63 264.76 1502.58 271.868C1491.53 278.712 1478.38 286.084 1463.12 293.981V305.827C1463.12 313.198 1465.36 319.385 1469.83 324.387C1474.3 329.125 1480.22 331.494 1487.59 331.494C1494.69 331.494 1500.48 329.125 1504.95 324.387C1509.69 319.385 1512.05 313.198 1512.05 305.827V301.879L1547.57 290.032V305.827ZM1514.82 178.677C1514.82 166.304 1512.19 157.748 1506.92 153.01C1501.93 148.008 1496.01 145.507 1489.17 145.507C1481.8 145.507 1475.62 148.14 1470.62 153.405C1465.62 158.407 1463.12 164.461 1463.12 171.569V253.309C1473.91 248.044 1482.59 242.647 1489.17 237.119C1496.01 231.59 1501.27 225.799 1504.95 219.744C1508.9 213.689 1511.53 207.371 1512.84 200.79C1514.16 193.945 1514.82 186.574 1514.82 178.677Z" fill="#151718"/>
<path d="M1783.52 376.537H1759.84L1751.95 362.321C1749.06 367.586 1744.59 371.798 1738.53 374.957C1732.75 378.116 1724.72 379.696 1714.46 379.696C1707.88 379.696 1701.31 378.379 1694.73 375.747C1688.41 373.114 1682.63 369.429 1677.36 364.69C1672.37 359.689 1668.16 353.634 1664.74 346.526C1661.58 339.418 1660 331.258 1660 322.044C1660 309.144 1661.58 297.825 1664.74 288.084C1667.89 278.344 1671.97 269.657 1676.97 262.022C1682.23 254.388 1688.02 247.675 1694.33 241.884C1700.91 236.092 1707.49 230.696 1714.07 225.694C1720.64 220.692 1726.83 216.085 1732.61 211.873C1738.67 207.661 1743.8 203.317 1748.01 198.842V186.601C1748.01 179.493 1746.16 173.438 1742.48 168.437C1739.06 163.171 1733.8 160.539 1726.69 160.539C1713.28 160.539 1704.86 166.462 1701.44 178.308L1671.05 157.775C1672.89 153.826 1675.52 149.877 1678.94 145.928C1682.36 141.98 1686.44 138.558 1691.18 135.662C1695.91 132.503 1701.17 130.002 1706.96 128.159C1713.01 126.053 1719.59 125 1726.69 125C1735.11 125 1742.74 126.711 1749.58 130.133C1756.69 133.292 1762.74 137.636 1767.74 143.164C1772.74 148.693 1776.55 155.274 1779.18 162.908C1782.08 170.279 1783.52 178.177 1783.52 186.601V376.537ZM1748.01 244.648C1743.53 247.544 1738.27 251.097 1732.22 255.309C1726.17 259.521 1720.38 264.655 1714.86 270.71C1709.59 276.765 1704.99 283.741 1701.04 291.638C1697.36 299.272 1695.52 308.091 1695.52 318.095C1695.52 325.466 1698.02 331.652 1703.02 336.654C1708.01 341.656 1714.2 344.157 1721.56 344.157C1724.98 344.157 1728.27 343.367 1731.43 341.787C1734.85 339.945 1737.74 337.707 1740.11 335.075C1742.48 332.179 1744.32 329.02 1745.64 325.598C1747.22 321.912 1748.01 318.227 1748.01 314.541V244.648Z" fill="#151718"/>
<path d="M1798 132H1833.52V318.777C1833.52 325.885 1836.41 331.94 1842.2 336.941C1847.73 342.206 1854.04 344.839 1861.14 344.839C1868.25 344.839 1874.69 342.206 1880.48 336.941C1886.27 331.94 1889.16 325.885 1889.16 318.777V132H1924.68V378.009H1901L1893.11 366.557C1889.69 371.296 1885.22 374.718 1879.69 376.824C1873.9 379.193 1867.72 380.378 1861.14 380.378C1852.46 380.378 1844.3 378.667 1836.67 375.245C1829.05 372.085 1822.47 367.742 1816.94 362.214C1811.15 356.685 1806.55 350.104 1803.13 342.47C1799.71 335.099 1798 327.201 1798 318.777V132Z" fill="#151718"/>
<path d="M2015.17 345.65C2018.85 345.65 2022.14 344.86 2025.03 343.28C2027.93 341.438 2030.03 339.332 2031.35 336.962L2055.81 363.419C2051.34 368.684 2045.42 372.765 2038.06 375.66C2030.95 378.819 2023.85 380.399 2016.74 380.399C1999.12 380.399 1985.44 374.871 1975.7 363.814C1966.23 352.494 1961.49 337.752 1961.49 319.588V160.058H1939V128.862H1961.49V83.8463L1997.01 72V128.862H2043.98V160.058H1997.01V319.588C1997.01 336.962 2003.06 345.65 2015.17 345.65Z" fill="#151718"/>
<path d="M2206.68 380.378H2171.16V193.601C2171.16 186.493 2168.27 180.438 2162.48 175.437C2156.96 170.172 2150.64 167.539 2143.54 167.539C2136.43 167.539 2129.99 170.172 2124.2 175.437C2118.41 180.438 2115.52 186.493 2115.52 193.601V380.378H2080V89L2111.57 71V145.821C2114.99 141.082 2119.46 137.66 2124.99 135.554C2130.78 133.185 2136.96 132 2143.54 132C2152.22 132 2160.38 133.711 2168.01 137.133C2175.64 140.292 2182.21 144.636 2187.74 150.164C2193.53 155.693 2198.13 162.274 2201.55 169.908C2204.97 177.279 2206.68 185.177 2206.68 193.601V380.378Z" fill="#151718"/>
</svg>
