<svg width="1621" height="470" viewBox="0 0 1621 470" fill="none" xmlns="http://www.w3.org/2000/svg">
<path d="M48.1691 0C21.5217 0 0 21.6184 0 48.1868V87.7473C0 99.4346 4.16452 110.164 11.0979 118.517C4.16452 126.869 0 137.599 0 149.286V254.78C0 266.468 4.16452 277.197 11.0979 285.55C4.16452 293.902 0 304.632 0 316.319V421.813C0 448.382 21.5216 470 48.1691 470H153.522C165.212 470 175.917 465.839 184.25 458.925C192.583 465.839 203.287 470 214.978 470H320.33C346.978 470 368.499 448.381 368.499 421.813V418.086C374.605 422.635 381.229 426.43 388.303 429.463L388.505 429.55L388.708 429.634C400.799 434.64 413.529 437.035 426.565 437.035C439.305 437.035 451.697 434.554 463.439 429.551C465.644 428.632 467.807 427.642 469.927 426.577V431.506H666.607V419.351C682.626 431.707 702.087 437.035 722.449 437.035C734.64 437.035 746.331 434.352 757.284 429.583C762.164 427.618 766.873 425.231 771.326 422.383C775.622 425.08 780.138 427.441 784.855 429.463C796.798 434.585 809.409 437.035 822.328 437.035C835.246 437.035 847.857 434.585 859.8 429.463C861.946 428.543 864.051 427.551 866.111 426.486V431.506H1087.25L1088.15 430.16C1096.35 432.235 1104.77 433.086 1113.11 433.086C1126.02 433.086 1138.67 430.638 1150.61 425.328C1160.09 421.113 1168.69 415.428 1176.17 408.261C1176.54 408.644 1176.91 409.024 1177.29 409.402L1177.94 410.053L1178.62 410.668C1186.72 417.959 1195.85 423.814 1205.94 428.021L1206.17 428.118L1206.4 428.211C1216.79 432.37 1227.77 434.666 1239.14 434.666C1247.5 434.666 1256.47 433.894 1265.24 431.506H1343.2V428.132C1344.47 428.699 1345.75 429.24 1347.05 429.755C1359.18 434.73 1371.96 437.035 1385.01 437.035C1399.77 437.035 1414.48 434.595 1428.03 428.316C1438.21 423.691 1447.44 417.465 1455.33 409.521C1463.97 418.034 1473.99 424.69 1485.12 429.463C1497.06 434.585 1509.67 437.035 1522.59 437.035C1535.51 437.035 1548.12 434.585 1560.06 429.463C1571.43 424.587 1581.64 417.687 1590.27 408.704C1599.02 399.869 1605.73 389.542 1610.3 378.004C1615.17 366.13 1617.57 353.646 1617.57 340.829V276.465L1607.93 279.682C1610.27 274.418 1612.23 268.959 1613.82 263.324C1618.46 247.787 1620.34 230.309 1620.34 211.704C1620.34 197.756 1618.04 184.057 1612.75 171.164C1608.15 159.106 1601.52 148.026 1592.51 138.58C1583.47 129.111 1572.7 121.97 1560.56 117.253C1548.96 112.385 1536.73 109.97 1524.17 109.97C1510.84 109.97 1497.87 112.609 1485.64 118.049C1474.39 122.91 1464.29 129.701 1455.61 138.393L1455.36 138.64L1455.18 138.818C1447.02 129.643 1437.14 122.65 1426.07 117.728C1413.74 112.245 1400.6 109.97 1387.38 109.97C1374.24 109.97 1361.32 112.308 1349.12 117.541C1337.76 122.41 1327.57 129.238 1318.82 137.998L1318.52 138.3L1318.22 138.609C1318.08 138.753 1317.95 138.897 1317.81 139.042C1309.69 130.226 1300.02 123.365 1289.19 118.441C1277.22 112.602 1264.41 109.97 1251.37 109.97C1240.93 109.97 1230.58 111.501 1220.59 114.917C1212.27 117.606 1204.35 121.312 1197.01 126.134C1190.95 129.899 1185.36 134.343 1180.36 139.496L1180.2 139.323C1171.8 130.134 1161.71 123.156 1150.48 118.236C1139.33 112.989 1127.49 110.34 1115.35 110.006V19.3999L1009.84 54.5933V124.306C1007.6 123.161 1005.31 122.099 1002.97 121.118C990.8 115.739 977.904 113.129 964.649 113.129C957.45 113.129 950.329 113.996 943.377 115.792L943.175 115.498H866.111V119.745C864.213 118.85 862.276 118.02 860.304 117.253C848.703 112.385 836.473 109.97 823.906 109.97C810.577 109.97 797.611 112.609 785.382 118.049C785.147 118.151 784.913 118.253 784.679 118.356V115.498H737.717V45.0669L632.199 80.2603V115.498H609.704V122.397C608.739 121.956 607.766 121.53 606.785 121.118C594.615 115.739 581.719 113.129 568.464 113.129C561.265 113.129 554.144 113.996 547.192 115.792L546.99 115.498H469.927V120.823C467.959 119.834 465.953 118.909 463.912 118.047C452.104 112.678 439.543 109.97 426.565 109.97C425.665 109.97 424.767 109.982 423.871 110.006V109H368.871V51H368.499V48.1868C368.499 21.6184 346.978 0 320.33 0H214.978C203.287 0 192.583 4.16089 184.25 11.0754C175.917 4.16089 165.212 0 153.522 0H48.1691Z" fill="white"/>
<path d="M487.734 340.827C487.734 349.251 486.024 357.28 482.604 364.915C479.447 372.286 475.105 378.735 469.58 384.264C464.055 389.792 457.478 394.135 449.848 397.294C442.482 400.454 434.72 402.033 426.564 402.033C417.882 402.033 409.726 400.454 402.096 397.294C394.73 394.135 388.284 389.792 382.759 384.264C377.234 378.735 372.893 372.286 369.736 364.915C366.579 357.28 365 349.251 365 340.827V206.569C365 198.145 366.579 190.247 369.736 182.876C372.893 175.242 377.234 168.661 382.759 163.132C388.284 157.604 394.73 153.26 402.096 150.101C409.726 146.679 417.882 144.968 426.564 144.968C434.72 144.968 442.482 146.679 449.848 150.101C457.478 153.26 464.055 157.604 469.58 163.132C475.105 168.661 479.447 175.242 482.604 182.876C486.024 190.247 487.734 198.145 487.734 206.569V340.827ZM452.216 206.569C452.216 199.461 449.585 193.406 444.323 188.405C439.324 183.139 433.405 180.507 426.564 180.507C419.198 180.507 413.015 183.139 408.016 188.405C403.017 193.406 400.518 199.461 400.518 206.569V340.827C400.518 348.198 403.017 354.384 408.016 359.386C413.015 364.125 419.198 366.494 426.564 366.494C433.405 366.494 439.324 364.125 444.323 359.386C449.585 354.384 452.216 348.198 452.216 340.827V206.569Z" fill="#151718"/>
<path d="M631.606 396.505H596.088V209.728C596.088 202.62 593.194 196.565 587.406 191.564C581.881 186.299 575.567 183.666 568.463 183.666C561.36 183.666 554.914 186.299 549.126 191.564C543.338 196.565 540.444 202.62 540.444 209.728V396.505H504.926V150.496H528.604L536.497 161.948C539.917 157.209 544.39 153.787 549.915 151.681C555.703 149.312 561.886 148.127 568.463 148.127C577.145 148.127 585.301 149.838 592.931 153.26C600.561 156.419 607.138 160.763 612.663 166.291C618.451 171.82 623.056 178.401 626.476 186.035C629.896 193.406 631.606 201.304 631.606 209.728V396.505Z" fill="#151718"/>
<path d="M720.87 367.284C724.553 367.284 727.842 366.494 730.736 364.915C733.63 363.072 735.734 360.966 737.05 358.597L761.518 385.053C757.045 390.318 751.125 394.399 743.759 397.294C736.655 400.454 729.552 402.033 722.448 402.033C704.821 402.033 691.14 396.505 681.405 385.448C671.934 374.128 667.198 359.386 667.198 341.222V181.692H644.703V150.496H667.198V105.48L702.716 93.634V150.496H749.678V181.692H702.716V341.222C702.716 358.597 708.767 367.284 720.87 367.284Z" fill="#151718"/>
<path d="M882.312 340.827C882.312 349.251 880.734 357.28 877.577 364.915C874.683 372.286 870.473 378.735 864.948 384.264C859.686 389.792 853.372 394.135 846.005 397.294C838.639 400.454 830.746 402.033 822.327 402.033C813.908 402.033 806.015 400.454 798.648 397.294C791.281 394.135 784.836 389.792 779.311 384.264C774.049 378.735 769.839 372.286 766.682 364.915C763.788 357.28 762.341 349.251 762.341 340.827V206.569C762.341 198.145 763.92 190.247 767.077 182.876C770.234 175.242 774.575 168.661 780.1 163.132C785.625 157.604 792.071 153.26 799.437 150.101C807.067 146.679 815.223 144.968 823.905 144.968C832.061 144.968 839.823 146.548 847.189 149.707C854.819 152.602 861.396 156.946 866.921 162.738C872.446 168.529 876.788 175.637 879.945 184.061C883.365 192.222 885.075 201.435 885.075 211.702C885.075 228.287 883.365 242.239 879.945 253.559C876.788 264.879 871.657 274.883 864.553 283.57C857.45 291.994 848.373 299.76 837.323 306.868C826.273 313.712 813.118 321.083 797.859 328.981V340.827C797.859 348.198 800.095 354.384 804.568 359.386C809.04 364.125 814.96 366.494 822.327 366.494C829.43 366.494 835.218 364.125 839.691 359.386C844.427 354.384 846.795 348.198 846.795 340.827V336.878L882.312 325.032V340.827ZM849.557 213.677C849.557 201.304 846.926 192.748 841.664 188.01C836.665 183.008 830.746 180.507 823.905 180.507C816.539 180.507 810.356 183.139 805.357 188.405C800.358 193.406 797.859 199.461 797.859 206.569V288.308C808.646 283.043 817.328 277.647 823.905 272.118C830.746 266.59 836.008 260.799 839.691 254.744C843.637 248.689 846.268 242.371 847.584 235.79C848.899 228.945 849.557 221.574 849.557 213.677Z" fill="#151718"/>
<path d="M1027.79 396.505H992.273V209.728C992.273 202.62 989.379 196.565 983.591 191.564C978.066 186.299 971.752 183.666 964.648 183.666C957.544 183.666 951.099 186.299 945.31 191.564C939.522 196.565 936.628 202.62 936.628 209.728V396.505H901.11V150.496H924.789L932.682 161.948C936.102 157.209 940.575 153.787 946.1 151.681C951.888 149.312 958.071 148.127 964.648 148.127C973.33 148.127 981.486 149.838 989.116 153.26C996.746 156.419 1003.32 160.763 1008.85 166.291C1014.64 171.82 1019.24 178.401 1022.66 186.035C1026.08 193.406 1027.79 201.304 1027.79 209.728V396.505Z" fill="#151718"/>
<path d="M1171.12 336.878C1171.12 345.302 1169.67 353.331 1166.78 360.966C1163.89 368.337 1159.81 374.786 1154.55 380.315C1149.55 385.843 1143.5 390.187 1136.39 393.346C1129.29 396.505 1121.53 398.084 1113.11 398.084C1103.9 398.084 1096.01 396.636 1089.43 393.741C1083.12 390.845 1078.77 387.817 1076.41 384.658L1068.51 396.505H1044.83V79.8133L1080.35 67.967V157.209C1081.93 154.05 1085.75 151.286 1091.8 148.917C1097.85 146.284 1104.82 144.968 1112.71 144.968C1121.13 144.968 1128.89 146.679 1136 150.101C1143.36 153.26 1149.55 157.604 1154.55 163.132C1159.81 168.661 1163.89 175.242 1166.78 182.876C1169.67 190.247 1171.12 198.145 1171.12 206.569V336.878ZM1107.98 180.507C1100.61 180.507 1094.16 183.139 1088.64 188.405C1083.11 193.406 1080.35 199.461 1080.35 206.569V336.878C1080.35 344.249 1083.11 350.436 1088.64 355.438C1094.16 360.176 1100.61 362.545 1107.98 362.545C1115.08 362.545 1121.4 360.176 1126.92 355.438C1132.71 350.436 1135.6 344.249 1135.6 336.878V206.569C1135.6 199.461 1132.71 193.406 1126.92 188.405C1121.4 183.139 1115.08 180.507 1107.98 180.507Z" fill="#151718"/>
<path d="M1308.2 396.505H1284.52L1276.63 382.289C1273.73 387.554 1269.26 391.766 1263.21 394.925C1257.42 398.084 1249.4 399.664 1239.14 399.664C1232.56 399.664 1225.98 398.347 1219.41 395.715C1213.09 393.082 1207.3 389.397 1202.04 384.658C1197.04 379.657 1192.83 373.602 1189.41 366.494C1186.26 359.386 1184.68 351.225 1184.68 342.012C1184.68 329.112 1186.26 317.793 1189.41 308.052C1192.57 298.312 1196.65 289.625 1201.65 281.99C1206.91 274.356 1212.7 267.643 1219.01 261.852C1225.59 256.06 1232.17 250.663 1238.74 245.662C1245.32 240.66 1251.5 236.053 1257.29 231.841C1263.34 227.629 1268.47 223.285 1272.68 218.81V206.569C1272.68 199.461 1270.84 193.406 1267.16 188.405C1263.74 183.139 1258.48 180.507 1251.37 180.507C1237.95 180.507 1229.53 186.43 1226.11 198.276L1195.73 177.743C1197.57 173.794 1200.2 169.845 1203.62 165.897C1207.04 161.948 1211.12 158.525 1215.85 155.63C1220.59 152.471 1225.85 149.97 1231.64 148.127C1237.69 146.021 1244.27 144.968 1251.37 144.968C1259.79 144.968 1267.42 146.679 1274.26 150.101C1281.36 153.26 1287.42 157.604 1292.41 163.132C1297.41 168.661 1301.23 175.242 1303.86 182.876C1306.75 190.247 1308.2 198.145 1308.2 206.569V396.505ZM1272.68 264.616C1268.21 267.512 1262.95 271.065 1256.9 275.277C1250.85 279.489 1245.06 284.623 1239.53 290.678C1234.27 296.732 1229.67 303.709 1225.72 311.606C1222.04 319.24 1220.19 328.059 1220.19 338.063C1220.19 345.434 1222.69 351.62 1227.69 356.622C1232.69 361.624 1238.87 364.125 1246.24 364.125C1249.66 364.125 1252.95 363.335 1256.11 361.756C1259.53 359.913 1262.42 357.675 1264.79 355.043C1267.16 352.147 1269 348.988 1270.31 345.566C1271.89 341.88 1272.68 338.195 1272.68 334.509V264.616Z" fill="#151718"/>
<path d="M1448.94 334.509C1448.94 343.196 1447.63 351.62 1445 359.781C1442.63 367.942 1438.81 375.181 1433.55 381.499C1428.29 387.817 1421.58 392.819 1413.43 396.505C1405.53 400.19 1396.06 402.033 1385.01 402.033C1376.07 402.033 1367.78 400.454 1360.15 397.294C1352.78 394.399 1346.34 390.318 1340.81 385.053C1335.29 379.788 1330.94 373.47 1327.79 366.099C1324.89 358.465 1323.45 350.041 1323.45 340.827V323.847L1358.96 331.745V340.827C1358.96 348.461 1361.6 354.648 1366.86 359.386C1372.12 364.125 1378.56 366.494 1386.19 366.494C1393.82 366.494 1400.14 364.256 1405.14 359.781C1410.14 355.043 1412.64 348.725 1412.64 340.827C1412.64 334.772 1411.71 329.507 1409.87 325.032C1408.29 320.293 1406.06 316.081 1403.16 312.396C1396.32 304.498 1388.43 297.259 1379.49 290.678C1370.8 284.096 1362.52 276.989 1354.62 269.354C1346.99 261.457 1340.42 252.638 1334.89 242.898C1329.63 233.157 1327 221.179 1327 206.964C1327 198.276 1328.45 190.116 1331.34 182.481C1334.23 174.847 1338.31 168.266 1343.57 162.738C1349.1 157.209 1355.54 152.866 1362.91 149.707C1370.28 146.548 1378.43 144.968 1387.38 144.968C1396.59 144.968 1404.74 146.548 1411.85 149.707C1418.95 152.866 1424.87 157.209 1429.61 162.738C1434.6 168.266 1438.29 174.847 1440.66 182.481C1443.29 189.852 1444.6 197.882 1444.6 206.569V223.549L1410.27 215.651V206.569C1410.27 199.724 1408.03 193.67 1403.56 188.405C1399.09 183.139 1393.3 180.507 1386.19 180.507C1378.56 180.507 1372.65 183.271 1368.44 188.799C1364.23 194.064 1362.12 200.251 1362.12 207.359C1362.12 215.519 1364.23 222.89 1368.44 229.472C1372.91 235.79 1378.3 241.976 1384.62 248.031C1390.93 253.823 1397.9 259.746 1405.53 265.8C1413.16 271.592 1420.13 277.91 1426.45 284.755C1432.76 291.336 1438.02 298.707 1442.23 306.868C1446.71 315.028 1448.94 324.242 1448.94 334.509Z" fill="#151718"/>
<path d="M1582.57 340.827C1582.57 349.251 1580.99 357.28 1577.84 364.915C1574.94 372.286 1570.73 378.735 1565.21 384.264C1559.95 389.792 1553.63 394.135 1546.27 397.294C1538.9 400.454 1531.01 402.033 1522.59 402.033C1514.17 402.033 1506.28 400.454 1498.91 397.294C1491.54 394.135 1485.1 389.792 1479.57 384.264C1474.31 378.735 1470.1 372.286 1466.94 364.915C1464.05 357.28 1462.6 349.251 1462.6 340.827V206.569C1462.6 198.145 1464.18 190.247 1467.34 182.876C1470.49 175.242 1474.84 168.661 1480.36 163.132C1485.89 157.604 1492.33 153.26 1499.7 150.101C1507.33 146.679 1515.48 144.968 1524.17 144.968C1532.32 144.968 1540.08 146.548 1547.45 149.707C1555.08 152.602 1561.66 156.946 1567.18 162.738C1572.71 168.529 1577.05 175.637 1580.2 184.061C1583.63 192.222 1585.34 201.435 1585.34 211.702C1585.34 228.287 1583.63 242.239 1580.2 253.559C1577.05 264.879 1571.92 274.883 1564.81 283.57C1557.71 291.994 1548.63 299.76 1537.58 306.868C1526.53 313.712 1513.38 321.083 1498.12 328.981V340.827C1498.12 348.198 1500.36 354.384 1504.83 359.386C1509.3 364.125 1515.22 366.494 1522.59 366.494C1529.69 366.494 1535.48 364.125 1539.95 359.386C1544.69 354.384 1547.05 348.198 1547.05 340.827V336.878L1582.57 325.032V340.827ZM1549.82 213.677C1549.82 201.304 1547.19 192.748 1541.92 188.01C1536.93 183.008 1531.01 180.507 1524.17 180.507C1516.8 180.507 1510.62 183.139 1505.62 188.405C1500.62 193.406 1498.12 199.461 1498.12 206.569V288.308C1508.91 283.043 1517.59 277.647 1524.17 272.118C1531.01 266.59 1536.27 260.799 1539.95 254.744C1543.9 248.689 1546.53 242.371 1547.84 235.79C1549.16 228.945 1549.82 221.574 1549.82 213.677Z" fill="#151718"/>
<path d="M35 48.1868C35 40.9039 40.896 35 48.1691 35H153.522C160.795 35 166.691 40.9039 166.691 48.1868V87.7473C166.691 95.0301 160.795 100.934 153.522 100.934H48.1691C40.896 100.934 35 95.0301 35 87.7473V48.1868Z" fill="#151718"/>
<path d="M201.808 48.1868C201.808 40.9039 207.704 35 214.978 35H320.33C327.603 35 333.499 40.9039 333.499 48.1868V87.7473C333.499 95.0301 327.603 100.934 320.33 100.934H225.952L166.691 160.275V243.791L225.952 303.132H320.33C327.603 303.132 333.499 309.036 333.499 316.319V421.813C333.499 429.096 327.603 435 320.33 435H214.978C207.704 435 201.808 429.096 201.808 421.813V327.308L142.548 267.967H48.1691C40.896 267.967 35 262.063 35 254.78V149.286C35 142.003 40.896 136.099 48.1691 136.099H142.548L201.808 76.7582V48.1868Z" fill="#E54D2E"/>
<path d="M48.1691 303.132C40.896 303.132 35 309.036 35 316.319V421.813C35 429.096 40.896 435 48.1691 435H153.522C160.795 435 166.691 429.096 166.691 421.813V316.319C166.691 309.036 160.795 303.132 153.522 303.132H48.1691Z" fill="#E54D2E"/>
</svg>
