<svg width="150" height="27" viewBox="0 0 150 27" fill="none" xmlns="http://www.w3.org/2000/svg">
<path d="M0 0.758242C0 0.339476 0.333391 0 0.74465 0H6.70185C7.11309 0 7.4465 0.339476 7.4465 0.758242V3.03297C7.4465 3.45173 7.11309 3.79121 6.70185 3.79121H0.74465C0.333392 3.79121 0 3.45173 0 3.03297V0.758242Z" fill="black"/>
<path d="M9.43224 0.758242C9.43224 0.339476 9.76566 0 10.1769 0H16.1341C16.5453 0 16.8787 0.339476 16.8787 0.758242V3.03297C16.8787 3.45173 16.5453 3.79121 16.1341 3.79121H10.7974L7.4465 7.2033V12.0055L10.7974 15.4176H16.1341C16.5453 15.4176 16.8787 15.7571 16.8787 16.1758V22.2418C16.8787 22.6605 16.5453 23 16.1341 23H10.1769C9.76566 23 9.43224 22.6605 9.43224 22.2418V16.8077L6.08131 13.3956H0.74465C0.333392 13.3956 0 13.0561 0 12.6374V6.57143C0 6.15266 0.333391 5.81319 0.74465 5.81319H6.08131L9.43224 2.4011V0.758242Z" fill="#E54D2E"/>
<path d="M0.74465 15.4175C0.333391 15.4175 0 15.757 0 16.1757V22.2417C0 22.6604 0.333392 22.9999 0.74465 22.9999H6.70185C7.11309 22.9999 7.4465 22.6604 7.4465 22.2417V16.1757C7.4465 15.757 7.11309 15.4175 6.70185 15.4175H0.74465Z" fill="#E54D2E"/>
<path d="M24.9361 19.4807C24.9361 19.965 24.8394 20.4267 24.646 20.8657C24.4675 21.2895 24.2221 21.6604 23.9096 21.9783C23.5972 22.2961 23.2253 22.5459 22.7939 22.7275C22.3773 22.9092 21.9385 23 21.4773 23C20.9864 23 20.5252 22.9092 20.0937 22.7275C19.6772 22.5459 19.3127 22.2961 19.0003 21.9783C18.6879 21.6604 18.4424 21.2895 18.2639 20.8657C18.0853 20.4267 17.9961 19.965 17.9961 19.4807V11.7608C17.9961 11.2764 18.0853 10.8223 18.2639 10.3984C18.4424 9.95948 18.6879 9.58106 19.0003 9.26317C19.3127 8.94534 19.6772 8.69556 20.0937 8.5139C20.5252 8.31713 20.9864 8.21875 21.4773 8.21875C21.9385 8.21875 22.3773 8.31713 22.7939 8.5139C23.2253 8.69556 23.5972 8.94534 23.9096 9.26317C24.2221 9.58106 24.4675 9.95948 24.646 10.3984C24.8394 10.8223 24.9361 11.2764 24.9361 11.7608V19.4807ZM22.9278 11.7608C22.9278 11.3521 22.779 11.004 22.4814 10.7163C22.1988 10.4136 21.8641 10.2622 21.4773 10.2622C21.0607 10.2622 20.7111 10.4136 20.4284 10.7163C20.1458 11.004 20.0045 11.3521 20.0045 11.7608V19.4807C20.0045 19.9045 20.1458 20.2602 20.4284 20.5478C20.7111 20.8203 21.0607 20.9565 21.4773 20.9565C21.8641 20.9565 22.1988 20.8203 22.4814 20.5478C22.779 20.2602 22.9278 19.9045 22.9278 19.4807V11.7608Z" fill="black"/>
<path d="M112.936 19.4807C112.936 19.965 112.839 20.4267 112.646 20.8657C112.468 21.2895 112.222 21.6604 111.91 21.9783C111.597 22.2961 111.225 22.5459 110.794 22.7275C110.377 22.9092 109.938 23 109.477 23C108.986 23 108.525 22.9092 108.094 22.7275C107.677 22.5459 107.313 22.2961 107 21.9783C106.688 21.6604 106.442 21.2895 106.264 20.8657C106.085 20.4267 105.996 19.965 105.996 19.4807V11.7608C105.996 11.2764 106.085 10.8223 106.264 10.3984C106.442 9.95948 106.688 9.58106 107 9.26317C107.313 8.94534 107.677 8.69556 108.094 8.5139C108.525 8.31713 108.986 8.21875 109.477 8.21875C109.938 8.21875 110.377 8.31713 110.794 8.5139C111.225 8.69556 111.597 8.94534 111.91 9.26317C112.222 9.58106 112.468 9.95948 112.646 10.3984C112.839 10.8223 112.936 11.2764 112.936 11.7608V19.4807ZM110.928 11.7608C110.928 11.3521 110.779 11.004 110.481 10.7163C110.199 10.4136 109.864 10.2622 109.477 10.2622C109.061 10.2622 108.711 10.4136 108.428 10.7163C108.146 11.004 108.004 11.3521 108.004 11.7608V19.4807C108.004 19.9045 108.146 20.2602 108.428 20.5478C108.711 20.8203 109.061 20.9565 109.477 20.9565C109.864 20.9565 110.199 20.8203 110.481 20.5478C110.779 20.2602 110.928 19.9045 110.928 19.4807V11.7608Z" fill="black"/>
<path d="M33.0714 22.6821H31.063V11.9424C31.063 11.5337 30.8993 11.1855 30.5721 10.898C30.2596 10.5952 29.9026 10.4439 29.5009 10.4439C29.0993 10.4439 28.7348 10.5952 28.4075 10.898C28.0802 11.1855 27.9166 11.5337 27.9166 11.9424V22.6821H25.9082V8.53662H27.2471L27.6934 9.19503C27.8868 8.92257 28.1397 8.7258 28.4521 8.60474C28.7794 8.46851 29.129 8.40039 29.5009 8.40039C29.9919 8.40039 30.453 8.49877 30.8845 8.69554C31.3159 8.8772 31.6878 9.12691 32.0002 9.44481C32.3275 9.7627 32.5879 10.1411 32.7813 10.5801C32.9747 11.0039 33.0714 11.458 33.0714 11.9424V22.6821Z" fill="black"/>
<path d="M38.1193 21.0019C38.3276 21.0019 38.5135 20.9566 38.6772 20.8657C38.8409 20.7597 38.9598 20.6387 39.0342 20.5024L40.4178 22.0237C40.1649 22.3265 39.8301 22.5611 39.4136 22.7276C39.0119 22.9092 38.6103 23 38.2086 23C37.2118 23 36.4383 22.6821 35.8878 22.0464C35.3523 21.3955 35.0844 20.5478 35.0844 19.5034V10.3304H33.8125V8.53669H35.0844V5.94825L37.0928 5.26709V8.53669H39.7484V10.3304H37.0928V19.5034C37.0928 20.5024 37.435 21.0019 38.1193 21.0019Z" fill="black"/>
<path d="M47.2467 19.4807C47.2467 19.965 47.1575 20.4267 46.979 20.8657C46.8153 21.2895 46.5773 21.6604 46.2648 21.9783C45.9673 22.2961 45.6103 22.5459 45.1937 22.7275C44.7771 22.9092 44.3309 23 43.8548 23C43.3788 23 42.9325 22.9092 42.5159 22.7275C42.0993 22.5459 41.7349 22.2961 41.4224 21.9783C41.1249 21.6604 40.8869 21.2895 40.7084 20.8657C40.5447 20.4267 40.4629 19.965 40.4629 19.4807V11.7608C40.4629 11.2764 40.5521 10.8223 40.7307 10.3984C40.9092 9.95948 41.1547 9.58106 41.4671 9.26317C41.7795 8.94534 42.144 8.69556 42.5605 8.5139C42.992 8.31713 43.4532 8.21875 43.9441 8.21875C44.4053 8.21875 44.8441 8.30955 45.2607 8.49121C45.6921 8.65771 46.064 8.90749 46.3764 9.24048C46.6888 9.57348 46.9343 9.98217 47.1128 10.4666C47.3062 10.9358 47.4029 11.4656 47.4029 12.056C47.4029 13.0096 47.3062 13.8119 47.1128 14.4627C46.9343 15.1136 46.6442 15.6888 46.2426 16.1884C45.8409 16.6727 45.3276 17.1192 44.7028 17.528C44.078 17.9215 43.3341 18.3454 42.4713 18.7994V19.4807C42.4713 19.9045 42.5977 20.2602 42.8506 20.5478C43.1035 20.8203 43.4383 20.9565 43.8548 20.9565C44.2564 20.9565 44.5838 20.8203 44.8367 20.5478C45.1045 20.2602 45.2383 19.9045 45.2383 19.4807V19.2536L47.2467 18.5724V19.4807ZM45.3946 12.1695C45.3946 11.458 45.2458 10.9661 44.9482 10.6937C44.6656 10.406 44.3309 10.2622 43.9441 10.2622C43.5275 10.2622 43.1779 10.4136 42.8952 10.7163C42.6126 11.004 42.4713 11.3521 42.4713 11.7608V16.4608C43.0812 16.158 43.5721 15.8478 43.9441 15.5299C44.3309 15.212 44.6284 14.879 44.8367 14.5309C45.0598 14.1827 45.2086 13.8194 45.2829 13.441C45.3574 13.0474 45.3946 12.6236 45.3946 12.1695Z" fill="black"/>
<path d="M55.4737 22.6821H53.4654V11.9424C53.4654 11.5337 53.3017 11.1855 52.9744 10.898C52.662 10.5952 52.305 10.4439 51.9033 10.4439C51.5016 10.4439 51.1372 10.5952 50.8098 10.898C50.4826 11.1855 50.3189 11.5337 50.3189 11.9424V22.6821H48.3105V8.53662H49.6495L50.0958 9.19503C50.2892 8.92257 50.5421 8.7258 50.8545 8.60474C51.1818 8.46851 51.5314 8.40039 51.9033 8.40039C52.3943 8.40039 52.8554 8.49877 53.2868 8.69554C53.7182 8.8772 54.0902 9.12691 54.4026 9.44481C54.7299 9.7627 54.9902 10.1411 55.1836 10.5801C55.377 11.0039 55.4737 11.458 55.4737 11.9424V22.6821Z" fill="black"/>
<path d="M63.5785 19.2536C63.5785 19.738 63.4966 20.1997 63.3328 20.6387C63.169 21.0625 62.9388 21.4334 62.6409 21.7512C62.3586 22.0691 62.0163 22.3189 61.6146 22.5006C61.2129 22.6822 60.7741 22.773 60.2981 22.773C59.7774 22.773 59.3311 22.6897 58.9591 22.5232C58.6021 22.3567 58.3566 22.1827 58.2227 22.001L57.7764 22.6822H56.4375V4.47242L58.4459 3.79126V8.92266C58.5351 8.74106 58.7509 8.58208 59.093 8.44585C59.4352 8.29452 59.8294 8.21882 60.2757 8.21882C60.7518 8.21882 61.1906 8.31721 61.5923 8.51397C62.0089 8.69563 62.3586 8.94541 62.6409 9.26324C62.9388 9.58113 63.169 9.95956 63.3328 10.3985C63.4966 10.8224 63.5785 11.2765 63.5785 11.7609V19.2536ZM60.008 10.2623C59.5914 10.2623 59.2269 10.4137 58.9145 10.7164C58.6021 11.004 58.4459 11.3522 58.4459 11.7609V19.2536C58.4459 19.6775 58.6021 20.0332 58.9145 20.3208C59.2269 20.5933 59.5914 20.7295 60.008 20.7295C60.4096 20.7295 60.7666 20.5933 61.0791 20.3208C61.4063 20.0332 61.57 19.6775 61.57 19.2536V11.7609C61.57 11.3522 61.4063 11.004 61.0791 10.7164C60.7666 10.4137 60.4096 10.2623 60.008 10.2623Z" fill="black"/>
<path d="M71.3286 22.6821H69.9894L69.5433 21.8647C69.3794 22.1674 69.1269 22.4096 68.7843 22.5913C68.4573 22.773 68.0037 22.8638 67.4235 22.8638C67.0512 22.8638 66.6795 22.7881 66.3078 22.6367C65.9503 22.4853 65.6233 22.2734 65.3254 22.0009C65.0431 21.7134 64.8048 21.3652 64.6118 20.9565C64.4331 20.5478 64.3438 20.0785 64.3438 19.5488C64.3438 18.807 64.4331 18.1561 64.6118 17.5961C64.7899 17.036 65.0208 16.5365 65.3031 16.0975C65.601 15.6586 65.928 15.2726 66.2854 14.9396C66.6571 14.6066 67.0288 14.2963 67.4012 14.0086C67.7729 13.721 68.1222 13.4561 68.4499 13.2139C68.7918 12.9717 69.0822 12.722 69.3199 12.4647V11.7608C69.3199 11.3521 69.2156 11.004 69.0077 10.7163C68.8141 10.4136 68.5169 10.2622 68.1148 10.2622C67.3565 10.2622 66.8805 10.6028 66.6869 11.284L64.9686 10.1033C65.0729 9.87627 65.2212 9.64917 65.4148 9.42214C65.6084 9.19505 65.8386 8.99829 66.1067 8.83179C66.3742 8.65013 66.672 8.50638 66.999 8.40041C67.3416 8.27928 67.7133 8.21875 68.1148 8.21875C68.5914 8.21875 69.0226 8.31713 69.4092 8.5139C69.8107 8.69556 70.1533 8.94534 70.4356 9.26317C70.7186 9.58106 70.9339 9.95948 71.0828 10.3984C71.2467 10.8223 71.3286 11.2764 71.3286 11.7608V22.6821ZM69.3199 15.0985C69.0673 15.265 68.7695 15.4694 68.4275 15.7115C68.085 15.9537 67.758 16.2489 67.4458 16.5971C67.148 16.9452 66.888 17.3463 66.6646 17.8005C66.4561 18.2394 66.3518 18.7465 66.3518 19.3217C66.3518 19.7455 66.4933 20.1012 66.7763 20.3889C67.0586 20.6765 67.4086 20.8203 67.825 20.8203C68.0186 20.8203 68.2041 20.7749 68.3829 20.6841C68.5765 20.5781 68.7397 20.4494 68.8737 20.2981C69.0077 20.1316 69.112 19.9499 69.1865 19.7531C69.2752 19.5412 69.3199 19.3293 69.3199 19.1173V15.0985Z" fill="black"/>
<path d="M79.2879 19.1173C79.2879 19.6169 79.2135 20.1013 79.0645 20.5705C78.9305 21.0397 78.7152 21.456 78.4173 21.8193C78.1201 22.1826 77.7403 22.4702 77.2792 22.6821C76.8331 22.894 76.2975 23 75.6726 23C75.1669 23 74.6984 22.9092 74.2665 22.7275C73.8501 22.561 73.4859 22.3264 73.1731 22.0236C72.861 21.7209 72.6152 21.3576 72.4371 20.9338C72.2733 20.4948 72.1914 20.0104 72.1914 19.4807V18.5043L74.2001 18.9584V19.4807C74.2001 19.9196 74.3484 20.2753 74.6463 20.5478C74.9435 20.8203 75.3084 20.9565 75.7397 20.9565C76.1709 20.9565 76.5278 20.8278 76.8107 20.5705C77.0931 20.2981 77.2346 19.9347 77.2346 19.4807C77.2346 19.1325 77.1824 18.8298 77.0782 18.5724C76.9894 18.3 76.8628 18.0578 76.699 17.8458C76.3124 17.3917 75.8663 16.9755 75.3599 16.5971C74.869 16.2186 74.4005 15.81 73.9544 15.3709C73.5231 14.9169 73.1508 14.4097 72.8386 13.8497C72.5408 13.2896 72.3925 12.6009 72.3925 11.7835C72.3925 11.284 72.4744 10.8147 72.6376 10.3758C72.8014 9.9368 73.0322 9.55837 73.3295 9.24048C73.6416 8.92259 74.0065 8.67287 74.4229 8.49121C74.8393 8.30955 75.3009 8.21875 75.8067 8.21875C76.3273 8.21875 76.7884 8.30955 77.1899 8.49121C77.592 8.67287 77.9265 8.92259 78.1945 9.24048C78.4769 9.55837 78.6854 9.9368 78.8188 10.3758C78.9677 10.7996 79.0422 11.2613 79.0422 11.7608V12.7371L77.1005 12.283V11.7608C77.1005 11.3672 76.9745 11.0191 76.7214 10.7163C76.4688 10.4136 76.1412 10.2622 75.7397 10.2622C75.3084 10.2622 74.9733 10.4212 74.7356 10.739C74.4973 11.0418 74.3782 11.3975 74.3782 11.8062C74.3782 12.2755 74.4973 12.6993 74.7356 13.0777C74.9882 13.441 75.2935 13.7967 75.6503 14.1449C76.0071 14.4778 76.4018 14.8185 76.8331 15.1666C77.2643 15.4996 77.6584 15.8629 78.0158 16.2565C78.3726 16.6349 78.6705 17.0587 78.9082 17.528C79.1613 17.9972 79.2879 18.527 79.2879 19.1173Z" fill="black"/>
<path d="M86.8443 19.4807C86.8443 19.965 86.755 20.4267 86.5769 20.8657C86.413 21.2895 86.1747 21.6604 85.8626 21.9783C85.5654 22.2961 85.2079 22.5459 84.7916 22.7275C84.3752 22.9092 83.9284 23 83.4524 23C82.9765 23 82.5303 22.9092 82.1139 22.7275C81.6969 22.5459 81.3327 22.2961 81.0199 21.9783C80.7227 21.6604 80.4844 21.2895 80.3063 20.8657C80.1425 20.4267 80.0605 19.965 80.0605 19.4807V11.7608C80.0605 11.2764 80.1499 10.8223 80.3286 10.3984C80.5067 9.95948 80.7524 9.58106 81.0646 9.26317C81.3773 8.94534 81.7416 8.69556 82.158 8.5139C82.5899 8.31713 83.0509 8.21875 83.5418 8.21875C84.0028 8.21875 84.4416 8.30955 84.8586 8.49121C85.2899 8.65771 85.6616 8.90749 85.9743 9.24048C86.2864 9.57348 86.5322 9.98217 86.7109 10.4666C86.9039 10.9358 87.0007 11.4656 87.0007 12.056C87.0007 13.0096 86.9039 13.8119 86.7109 14.4627C86.5322 15.1136 86.2418 15.6888 85.8403 16.1884C85.4388 16.6727 84.9256 17.1192 84.3007 17.528C83.6758 17.9215 82.9318 18.3454 82.0692 18.7994V19.4807C82.0692 19.9045 82.1952 20.2602 82.4484 20.5478C82.7016 20.8203 83.036 20.9565 83.4524 20.9565C83.8545 20.9565 84.1816 20.8203 84.4347 20.5478C84.7022 20.2602 84.8362 19.9045 84.8362 19.4807V19.2536L86.8443 18.5724V19.4807ZM84.9926 12.1695C84.9926 11.458 84.8437 10.9661 84.5458 10.6937C84.2635 10.406 83.9284 10.2622 83.5418 10.2622C83.1254 10.2622 82.7754 10.4136 82.4931 10.7163C82.2101 11.004 82.0692 11.3521 82.0692 11.7608V16.4608C82.6792 16.158 83.1701 15.8478 83.5418 15.5299C83.9284 15.212 84.2262 14.879 84.4347 14.5309C84.6575 14.1827 84.8064 13.8194 84.8809 13.441C84.9554 13.0474 84.9926 12.6236 84.9926 12.1695Z" fill="black"/>
<path fill-rule="evenodd" clip-rule="evenodd" d="M120.654 8.14401C120.41 8.1406 119.92 8.13829 119.454 8.10768C118.988 8.07708 118.546 8.01818 118.065 8.00344C117.584 7.98873 117.063 8.01816 116.573 8.15069C116.082 8.28322 115.62 8.51881 115.257 8.82315C114.894 9.12746 114.629 9.5005 114.442 9.8441C114.256 10.1877 114.148 10.5018 114.099 11.297C114.05 12.0921 114.06 13.3683 114.109 14.1929C114.158 15.0175 114.246 15.3906 114.383 15.7145C114.521 16.0385 114.707 16.3134 114.806 16.5097C114.904 16.706 114.914 16.8238 114.83 16.9858C114.747 17.1478 114.57 17.3539 114.433 17.5748C114.295 17.7957 114.197 18.0313 114.128 18.262C114.06 18.4927 114.02 18.7184 114.006 19.0326C113.991 19.3467 114.001 19.7492 114.094 20.0977C114.187 20.4462 114.364 20.7407 114.555 20.9974C114.746 21.2541 114.952 21.4729 115.016 21.6496C115.079 21.8263 115.001 21.9609 114.931 22.1116C114.861 22.2623 114.798 22.4292 114.727 22.6157C114.656 22.8022 114.578 23.0084 114.529 23.2783C114.48 23.5483 114.46 23.8821 114.48 24.1815C114.499 24.4809 114.558 24.746 114.644 24.9767C114.73 25.2074 114.844 25.4037 115.026 25.6293C115.207 25.8549 115.457 26.1097 115.757 26.3011C116.056 26.4926 116.403 26.6206 116.763 26.6944C117.124 26.7682 117.496 26.7878 117.884 26.7338C118.271 26.6798 118.673 26.5522 119.022 26.297C119.37 26.0418 119.665 25.6589 119.842 25.3742C120.018 25.0895 120.077 24.903 120.141 24.5644C120.205 24.2257 120.274 23.7348 120.175 23.1998C120.077 22.6648 119.812 22.0856 119.508 21.6782C119.204 21.2708 118.86 21.0352 118.541 20.8831C118.222 20.7309 117.927 20.6622 117.633 20.6376C117.338 20.6131 117.044 20.6327 116.784 20.5836C116.524 20.5346 116.298 20.4168 116.116 20.2597C115.935 20.1026 115.797 19.9063 115.728 19.6756C115.66 19.4449 115.66 19.1798 115.694 18.9639C115.728 18.7479 115.797 18.581 115.885 18.4387C115.974 18.2963 116.082 18.1785 116.224 18.0754C116.366 17.9724 116.543 17.884 116.833 17.8447C117.122 17.8055 117.525 17.8153 117.913 17.7613C118.3 17.7073 118.673 17.5895 118.997 17.4128C119.321 17.2361 119.596 17.0005 119.832 16.7551C120.067 16.5097 120.264 16.2544 120.436 15.9256C120.607 15.5967 120.755 15.1942 120.853 14.6887C120.951 14.1831 121 13.5745 121 12.9364C121 12.2983 120.951 11.6307 120.882 11.1546C120.813 10.6785 120.725 10.3938 120.642 10.1828C120.559 9.97171 120.481 9.83427 120.479 9.70031C120.477 9.56636 120.551 9.43588 120.639 9.34753C120.727 9.25918 120.829 9.21295 120.88 9.18984C120.931 9.16673 120.931 9.16673 120.93 9.0007C120.929 8.83467 120.927 8.50259 120.92 8.3342C120.913 8.1658 120.903 8.1611 120.899 8.15649C120.894 8.15187 120.897 8.1474 120.654 8.14399L120.654 8.14401ZM115.635 13.2162C115.63 12.7302 115.63 12.1707 115.645 11.7731C115.66 11.3755 115.689 11.1399 115.787 10.9043C115.885 10.6687 116.052 10.4331 116.214 10.2711C116.376 10.1091 116.533 10.0208 116.725 9.94226C116.916 9.86373 117.142 9.79501 117.407 9.80482C117.672 9.81464 117.976 9.90299 118.202 10.0159C118.428 10.1288 118.575 10.2662 118.703 10.4331C118.83 10.6 118.938 10.7963 119.012 11.0024C119.086 11.2086 119.125 11.4246 119.15 12.0087C119.174 12.5928 119.184 13.545 119.14 14.1487C119.096 14.7525 118.997 15.0077 118.87 15.2138C118.742 15.42 118.585 15.5771 118.408 15.7047C118.232 15.8323 118.035 15.9305 117.795 15.9747C117.554 16.0188 117.27 16.009 117.014 15.955C116.759 15.901 116.533 15.8029 116.352 15.6556C116.17 15.5084 116.033 15.312 115.925 15.1157C115.817 14.9194 115.738 14.723 115.694 14.4187C115.65 14.1144 115.64 13.7021 115.635 13.2161V13.2162ZM117.368 22.3605C118.1 22.3605 118.693 22.967 118.693 23.7152C118.693 24.4634 118.1 25.0699 117.368 25.0699C116.636 25.0699 116.042 24.4634 116.042 23.7152C116.042 22.967 116.636 22.3605 117.368 22.3605Z" fill="black" stroke="black" stroke-width="0.00786998" stroke-miterlimit="2.61313"/>
<path fill-rule="evenodd" clip-rule="evenodd" d="M103.322 2.02381C103.644 2.02549 104.289 2.01453 104.611 2.00904C104.933 2.00355 104.933 2.00355 104.933 2.00355C104.933 2.00355 104.933 2.00355 104.944 5.50296C104.956 9.00237 104.978 16.0012 104.989 19.5006C105 23 105 23 105 23C105 23 105 23 104.7 23C104.4 23 103.8 23 103.5 23C103.2 23 103.2 23 103.2 23C103.2 23 103.2 23 103.167 19.4989C103.133 15.9978 103.067 8.99563 103.033 5.49453C103 1.99344 103 1.99344 103 2.00061C103 2.00777 103 2.02211 103.322 2.02381H103.322Z" fill="black" stroke="black" stroke-width="0.00786998" stroke-miterlimit="2.61313"/>
<path fill-rule="evenodd" clip-rule="evenodd" d="M94.0361 5.45354C94.0585 8.94669 94.0915 15.9569 94.108 19.4675C94.1244 22.9781 94.1244 22.9892 94.1244 22.9947C94.1244 23.0002 94.1244 23.0002 94.6522 22.9999C95.1799 22.9996 96.2354 22.999 97.0215 22.9766C97.8076 22.9542 98.3244 22.9101 98.7587 22.8273C99.1929 22.7445 99.5448 22.6231 99.9021 22.4078C100.259 22.1926 100.622 21.8835 100.908 21.5468C101.194 21.2101 101.403 20.8458 101.557 20.454C101.711 20.0621 101.81 19.6426 101.865 18.7595C101.92 17.8764 101.931 16.5297 101.931 15.6963C101.931 14.8629 101.92 14.5427 101.837 14.1784C101.755 13.8142 101.601 13.4057 101.381 13.0194C101.161 12.633 100.875 12.2687 100.732 12.0866C100.589 11.9045 100.589 11.9045 100.589 11.9045C100.589 11.9045 100.589 11.9045 100.727 11.7334C100.864 11.5623 101.139 11.2201 101.353 10.9C101.568 10.5798 101.722 10.2818 101.821 9.8844C101.92 9.48701 101.964 8.99027 101.986 8.28378C102.008 7.57729 102.008 6.66108 101.964 5.99324C101.92 5.3254 101.832 4.90593 101.645 4.48646C101.458 4.06699 101.172 3.64752 100.793 3.26115C100.413 2.87481 99.9406 2.52156 99.3578 2.31182C98.7751 2.10207 98.0825 2.03585 97.1735 2.01568C96.2645 1.99551 95.1391 2.02142 94.5726 2.02784C94.006 2.03428 93.9982 2.02124 94.0002 2.00276C94.0021 1.98429 94.0138 1.96038 94.0361 5.45354H94.0361ZM96.0033 14.2397C96.0045 15.6087 96.0045 18.3527 96.0045 19.7247C96.0045 21.0966 96.0045 21.0966 96.0045 21.0966C96.0045 21.0966 96.0045 21.0966 96.3728 21.0966C96.7411 21.0966 97.4778 21.0966 98.0055 21.0525C98.5333 21.0083 98.8521 20.92 99.105 20.782C99.3579 20.6441 99.5448 20.4564 99.6932 20.2687C99.8416 20.0811 99.9516 19.8934 100.021 19.2611C100.09 18.6287 100.118 17.5516 100.127 16.715C100.136 15.8784 100.125 15.2823 100.075 14.8518C100.026 14.4213 99.9378 14.1563 99.8246 13.93C99.7115 13.7037 99.5731 13.5161 99.3784 13.3342C99.1836 13.1522 98.9324 12.976 98.3581 12.903C97.7838 12.8299 96.8865 12.86 96.4391 12.8737C95.9918 12.8875 95.9944 12.8848 95.9969 12.8807C95.9995 12.8764 96.002 12.8706 96.0033 14.2397ZM95.9373 5.20131C95.9385 6.34092 95.9385 8.62593 95.9385 9.76844C95.9385 10.911 95.9385 10.911 95.9385 10.911C95.9385 10.911 95.9385 10.911 96.3069 10.911C96.6752 10.911 97.4118 10.9109 97.9396 10.8668C98.4673 10.8226 98.7861 10.7343 99.039 10.5964C99.2919 10.4584 99.4788 10.2707 99.6272 10.0831C99.7757 9.89541 99.8856 9.70774 99.9626 9.30484C100.04 8.90192 100.083 8.28376 100.1 7.67662C100.116 7.06948 100.105 6.47339 100.056 6.04289C100.007 5.61238 99.9186 5.34745 99.7976 5.12116C99.6767 4.89486 99.5228 4.70721 99.3202 4.52528C99.1176 4.34336 98.8664 4.16717 98.2921 4.09411C97.7178 4.02105 96.8205 4.05113 96.3732 4.06486C95.9258 4.07859 95.9284 4.07597 95.9309 4.07178C95.9335 4.06756 95.936 4.06172 95.9373 5.20133L95.9373 5.20131Z" fill="black" stroke="black" stroke-width="0.00786998" stroke-miterlimit="2.61313"/>
<path fill-rule="evenodd" clip-rule="evenodd" d="M138 17H135C134.448 17 134 16.552 134 16C134 15.448 134.448 15 135 15H138C138.552 15 139 15.448 139 16C139 16.552 138.552 17 138 17ZM134 20C134 19.448 134.448 19 135 19H141C141.553 19 142 19.448 142 20C142 20.552 141.553 21 141 21H135C134.448 21 134 20.552 134 20ZM143.444 23H132.555C132.249 23 132 22.776 132 22.5V7.5C132 7.224 132.249 7 132.555 7H138V10.15C138 11.722 139.217 13 140.714 13H144V22.5C144 22.776 143.751 23 143.444 23ZM140 7.978L142.742 11H140.714C140.32 11 140 10.619 140 10.15V7.978ZM145.74 11.328L140.296 5.328C140.106 5.119 139.838 5 139.555 5H132.555C131.146 5 130 6.122 130 7.5V22.5C130 23.878 131.146 25 132.555 25H143.444C144.853 25 146 23.878 146 22.5V12C146 11.751 145.907 11.512 145.74 11.328Z" fill="#031330"/>
<mask id="mask0_527_1317" style="mask-type:alpha" maskUnits="userSpaceOnUse" x="130" y="5" width="17" height="20">
<path fill-rule="evenodd" clip-rule="evenodd" d="M138 17H135C134.448 17 134 16.552 134 16C134 15.448 134.448 15 135 15H138C138.552 15 139 15.448 139 16C139 16.552 138.552 17 138 17ZM134 20C134 19.448 134.448 19 135 19H141C141.553 19 142 19.448 142 20C142 20.552 141.553 21 141 21H135C134.448 21 134 20.552 134 20ZM143.444 23H132.555C132.249 23 132 22.776 132 22.5V7.5C132 7.224 132.249 7 132.555 7H138V10.15C138 11.722 139.217 13 140.714 13H144V22.5C144 22.776 143.751 23 143.444 23ZM140 7.978L142.742 11H140.714C140.32 11 140 10.619 140 10.15V7.978ZM145.74 11.328L140.296 5.328C140.106 5.119 139.838 5 139.555 5H132.555C131.146 5 130 6.122 130 7.5V22.5C130 23.878 131.146 25 132.555 25H143.444C144.853 25 146 23.878 146 22.5V12C146 11.751 145.907 11.512 145.74 11.328Z" fill="white"/>
</mask>
<g mask="url(#mask0_527_1317)">
<rect x="126" y="3" width="24" height="24" fill="black"/>
</g>
</svg>
