<svg width="257" height="43" viewBox="0 0 257 43" fill="none" xmlns="http://www.w3.org/2000/svg">
<path d="M0 1.31867C0 0.590388 0.579805 0 1.29503 0H11.6553C12.3705 0 12.9503 0.590388 12.9503 1.31867V5.27468C12.9503 6.00296 12.3705 6.59335 11.6553 6.59335H1.29503C0.579807 6.59335 0 6.00296 0 5.27468V1.31867Z" fill="black"/>
<path d="M16.4037 1.31867C16.4037 0.590388 16.9836 0 17.6988 0H28.059C28.7742 0 29.3541 0.590388 29.3541 1.31867V5.27468C29.3541 6.00296 28.7742 6.59335 28.059 6.59335H18.778L12.9503 12.5274V20.8789L18.778 26.8129H28.059C28.7742 26.8129 29.3541 27.4034 29.3541 28.1316V38.681C29.3541 39.4092 28.7742 39.9996 28.059 39.9996H17.6988C16.9836 39.9996 16.4037 39.4092 16.4037 38.681V29.2305L10.5761 23.2965H1.29503C0.579807 23.2965 0 22.7061 0 21.9778V11.4285C0 10.7002 0.579806 10.1098 1.29503 10.1098H10.5761L16.4037 4.17579V1.31867Z" fill="#38BF4B"/>
<path d="M1.29503 26.8127C0.579805 26.8127 0 27.4032 0 28.1314V38.6808C0 39.409 0.579807 39.9994 1.29503 39.9994H11.6553C12.3705 39.9994 12.9503 39.409 12.9503 38.6808V28.1314C12.9503 27.4032 12.3705 26.8127 11.6553 26.8127H1.29503Z" fill="#38BF4B"/>
<path d="M43.3673 33.8792C43.3673 34.7215 43.1992 35.5245 42.8628 36.2879C42.5524 37.025 42.1255 37.67 41.5821 38.2228C41.0389 38.7757 40.392 39.2099 39.6417 39.5259C38.9173 39.8418 38.1541 39.9997 37.352 39.9997C36.4983 39.9997 35.6962 39.8418 34.9459 39.5259C34.2215 39.2099 33.5876 38.7757 33.0442 38.2228C32.5009 37.67 32.074 37.025 31.7635 36.2879C31.453 35.5245 31.2979 34.7215 31.2979 33.8792V20.4535C31.2979 19.6111 31.453 18.8213 31.7635 18.0842C32.074 17.3208 32.5009 16.6627 33.0442 16.1098C33.5876 15.5571 34.2215 15.1227 34.9459 14.8067C35.6962 14.4646 36.4983 14.2935 37.352 14.2935C38.1541 14.2935 38.9173 14.4646 39.6417 14.8067C40.392 15.1227 41.0389 15.5571 41.5821 16.1098C42.1255 16.6627 42.5524 17.3208 42.8628 18.0842C43.1992 18.8213 43.3673 19.6111 43.3673 20.4535V33.8792ZM39.8746 20.4535C39.8746 19.7428 39.6158 19.1373 39.0984 18.637C38.6068 18.1106 38.0247 17.8473 37.352 17.8473C36.6276 17.8473 36.0195 18.1106 35.528 18.637C35.0364 19.1373 34.7907 19.7428 34.7907 20.4535V33.8792C34.7907 34.6163 35.0364 35.2349 35.528 35.735C36.0195 36.209 36.6276 36.4459 37.352 36.4459C38.0247 36.4459 38.6068 36.209 39.0984 35.735C39.6158 35.2349 39.8746 34.6163 39.8746 33.8792V20.4535Z" fill="black"/>
<path d="M57.5132 39.4468H54.0204V20.7693C54.0204 20.0586 53.7358 19.4531 53.1667 18.953C52.6233 18.4265 52.0024 18.1632 51.3039 18.1632C50.6053 18.1632 49.9714 18.4265 49.4022 18.953C48.8331 19.4531 48.5485 20.0586 48.5485 20.7693V39.4468H45.0557V14.8463H47.3841L48.1603 15.9913C48.4967 15.5175 48.9365 15.1753 49.4798 14.9648C50.049 14.7278 50.657 14.6094 51.3039 14.6094C52.1576 14.6094 52.9597 14.7805 53.71 15.1227C54.4603 15.4386 55.107 15.8729 55.6504 16.4257C56.2196 16.9786 56.6724 17.6367 57.0087 18.4001C57.3451 19.1372 57.5132 19.9269 57.5132 20.7693V39.4468Z" fill="black"/>
<path d="M66.2947 36.5246C66.6569 36.5246 66.9803 36.4457 67.2649 36.2877C67.5496 36.1034 67.7565 35.8929 67.8859 35.6559L70.2921 38.3015C69.8522 38.8281 69.2701 39.2361 68.5456 39.5257C67.847 39.8416 67.1486 39.9995 66.45 39.9995C64.7165 39.9995 63.3712 39.4467 62.4138 38.3411C61.4825 37.2091 61.0167 35.7348 61.0167 33.9185V17.9655H58.8047V14.8461H61.0167V10.3445L64.5095 9.15991V14.8461H69.1278V17.9655H64.5095V33.9185C64.5095 35.6559 65.1046 36.5246 66.2947 36.5246Z" fill="black"/>
<path d="M212.019 36.4726C212.347 36.4726 212.641 36.3925 212.9 36.2321C213.158 36.0451 213.346 35.8314 213.464 35.5909L215.65 38.2763C215.25 38.8108 214.721 39.225 214.063 39.5189C213.429 39.8396 212.794 39.9999 212.16 39.9999C210.585 39.9999 209.363 39.4387 208.493 38.3164C207.647 37.1674 207.224 35.6709 207.224 33.8272V17.6341H205.215V14.4676H207.224V9.89826L210.397 8.6958V14.4676H214.592V17.6341H210.397V33.8272C210.397 35.5909 210.937 36.4726 212.019 36.4726Z" fill="black"/>
<path d="M82.168 33.8792C82.168 34.7215 82.0128 35.5245 81.7023 36.2879C81.4177 37.025 81.0037 37.67 80.4604 38.2228C79.9429 38.7757 79.322 39.2099 78.5976 39.5259C77.8731 39.8418 77.0969 39.9997 76.269 39.9997C75.4411 39.9997 74.665 39.8418 73.9405 39.5259C73.2161 39.2099 72.5822 38.7757 72.0389 38.2228C71.5214 37.67 71.1075 37.025 70.797 36.2879C70.5125 35.5245 70.3701 34.7215 70.3701 33.8792V20.4535C70.3701 19.6111 70.5253 18.8213 70.8358 18.0842C71.1463 17.3208 71.5732 16.6627 72.1165 16.1098C72.6598 15.5571 73.2938 15.1227 74.0181 14.8067C74.7685 14.4646 75.5705 14.2935 76.4243 14.2935C77.2263 14.2935 77.9895 14.4514 78.714 14.7673C79.4643 15.0569 80.1111 15.4912 80.6544 16.0704C81.1978 16.6495 81.6247 17.3602 81.9351 18.2027C82.2715 19.0188 82.4396 19.9401 82.4396 20.9668C82.4396 22.6253 82.2715 24.0205 81.9351 25.1525C81.6247 26.2845 81.1202 27.2848 80.4216 28.1536C79.7231 28.9959 78.8305 29.7724 77.7438 30.4833C76.6572 31.1677 75.3635 31.9048 73.8629 32.6945V33.8792C73.8629 34.6163 74.0829 35.2349 74.5226 35.735C74.9625 36.209 75.5446 36.4459 76.269 36.4459C76.9675 36.4459 77.5368 36.209 77.9766 35.735C78.4424 35.2349 78.6752 34.6163 78.6752 33.8792V33.4843L82.168 32.2997V33.8792ZM78.9469 21.1643C78.9469 19.9269 78.6881 19.0714 78.1706 18.5976C77.6791 18.0974 77.0969 17.8473 76.4243 17.8473C75.6998 17.8473 75.0918 18.1106 74.6002 18.637C74.1087 19.1373 73.8629 19.7428 73.8629 20.4535V28.6274C74.9237 28.1008 75.7774 27.5613 76.4243 27.0084C77.0969 26.4556 77.6144 25.8764 77.9766 25.2709C78.3647 24.6655 78.6235 24.0337 78.7528 23.3756C78.8821 22.6911 78.9469 21.954 78.9469 21.1643Z" fill="black"/>
<path d="M96.4752 39.4468H92.9824V20.7693C92.9824 20.0586 92.6978 19.4531 92.1285 18.953C91.5853 18.4265 90.9643 18.1632 90.2658 18.1632C89.5672 18.1632 88.9334 18.4265 88.3641 18.953C87.795 19.4531 87.5104 20.0586 87.5104 20.7693V39.4468H84.0176V14.8463H86.3461L87.1223 15.9913C87.4587 15.5175 87.8984 15.1753 88.4418 14.9648C89.011 14.7278 89.619 14.6094 90.2658 14.6094C91.1196 14.6094 91.9217 14.7805 92.6719 15.1227C93.4222 15.4386 94.069 15.8729 94.6123 16.4257C95.1816 16.9786 95.6343 17.6367 95.9707 18.4001C96.3069 19.1372 96.4752 19.9269 96.4752 20.7693V39.4468Z" fill="black"/>
<path d="M110.57 33.4841C110.57 34.3265 110.428 35.1295 110.143 35.8929C109.858 36.6299 109.458 37.275 108.94 37.8277C108.449 38.3806 107.853 38.8149 107.155 39.1309C106.456 39.4467 105.693 39.6047 104.865 39.6047C103.96 39.6047 103.184 39.4599 102.537 39.1703C101.916 38.8808 101.489 38.578 101.256 38.2621L100.48 39.4467H98.1514V7.77788L101.644 6.59326V15.5174C101.799 15.2015 102.175 14.9251 102.77 14.6881C103.365 14.4249 104.05 14.2933 104.826 14.2933C105.654 14.2933 106.418 14.4644 107.116 14.8066C107.841 15.1225 108.449 15.5569 108.94 16.1097C109.458 16.6625 109.858 17.3206 110.143 18.084C110.428 18.8212 110.57 19.6109 110.57 20.4534V33.4841ZM104.361 17.8471C103.636 17.8471 103.002 18.1104 102.459 18.6369C101.916 19.1371 101.644 19.7426 101.644 20.4534V33.4841C101.644 34.2213 101.916 34.8398 102.459 35.34C103.002 35.8139 103.636 36.0508 104.361 36.0508C105.059 36.0508 105.68 35.8139 106.224 35.34C106.793 34.8398 107.077 34.2213 107.077 33.4841V20.4534C107.077 19.7426 106.793 19.1371 106.224 18.6369C105.68 18.1104 105.059 17.8471 104.361 17.8471Z" fill="black"/>
<path d="M124.049 39.4469H121.72L120.944 38.0253C120.659 38.5518 120.22 38.973 119.624 39.289C119.055 39.6049 118.266 39.7628 117.257 39.7628C116.61 39.7628 115.963 39.6312 115.317 39.368C114.695 39.1047 114.127 38.7361 113.609 38.2623C113.118 37.7622 112.703 37.1567 112.368 36.4459C112.057 35.735 111.901 34.919 111.901 33.9977C111.901 32.7077 112.057 31.5757 112.368 30.6018C112.677 29.6277 113.079 28.7589 113.57 27.9955C114.088 27.2321 114.657 26.5608 115.278 25.9817C115.925 25.4026 116.571 24.8629 117.219 24.3627C117.865 23.8625 118.473 23.4018 119.042 22.9806C119.637 22.5594 120.142 22.1251 120.555 21.6776V20.4535C120.555 19.7428 120.374 19.1373 120.013 18.637C119.676 18.1106 119.159 17.8473 118.46 17.8473C117.141 17.8473 116.313 18.4396 115.976 19.6243L112.988 17.5709C113.169 17.1761 113.427 16.7811 113.764 16.3863C114.101 15.9914 114.501 15.6492 114.967 15.3596C115.432 15.0437 115.95 14.7937 116.519 14.6094C117.115 14.3987 117.761 14.2935 118.46 14.2935C119.288 14.2935 120.038 14.4646 120.711 14.8067C121.409 15.1227 122.005 15.5571 122.496 16.1098C122.988 16.6627 123.362 17.3208 123.621 18.0842C123.906 18.8213 124.049 19.6111 124.049 20.4535V39.4469ZM120.555 26.2581C120.116 26.5476 119.598 26.9031 119.004 27.3242C118.408 27.7454 117.839 28.2588 117.296 28.8643C116.778 29.4698 116.326 30.1674 115.938 30.9572C115.575 31.7206 115.394 32.6024 115.394 33.6027C115.394 34.3399 115.64 34.9584 116.132 35.4587C116.623 35.9589 117.232 36.209 117.956 36.209C118.292 36.209 118.615 36.13 118.926 35.9721C119.263 35.7878 119.546 35.5639 119.779 35.3008C120.013 35.0112 120.194 34.6953 120.323 34.3531C120.478 33.9845 120.555 33.6159 120.555 33.2474V26.2581Z" fill="black"/>
<path d="M203.474 39.6972H201.14L200.362 38.3383C200.076 38.8416 199.636 39.2442 199.039 39.5462C198.469 39.8483 197.679 39.9992 196.667 39.9992C196.019 39.9992 195.371 39.8734 194.723 39.6218C194.1 39.3701 193.53 39.0177 193.011 38.5648C192.519 38.0867 192.103 37.5079 191.767 36.8284C191.456 36.1488 191.3 35.3687 191.3 34.488C191.3 33.2548 191.456 32.1727 191.767 31.2417C192.077 30.3105 192.48 29.48 192.972 28.7502C193.491 28.0204 194.061 27.3787 194.684 26.8251C195.332 26.2715 195.98 25.7556 196.629 25.2774C197.276 24.7992 197.885 24.3588 198.456 23.9562C199.052 23.5535 199.558 23.1384 199.973 22.7105V21.5404C199.973 20.8609 199.791 20.2821 199.429 19.8039C199.091 19.3006 198.573 19.0489 197.872 19.0489C196.551 19.0489 195.721 19.6151 195.384 20.7477L192.389 18.7847C192.571 18.4073 192.829 18.0297 193.167 17.6523C193.504 17.2747 193.905 16.9476 194.372 16.6708C194.839 16.3688 195.358 16.1298 195.928 15.9536C196.525 15.7522 197.173 15.6516 197.872 15.6516C198.703 15.6516 199.455 15.8152 200.128 16.1423C200.828 16.4443 201.425 16.8596 201.917 17.388C202.41 17.9165 202.786 18.5456 203.045 19.2754C203.331 19.9801 203.474 20.7351 203.474 21.5404V39.6972ZM199.973 27.0893C199.532 27.3661 199.013 27.7059 198.417 28.1085C197.82 28.5111 197.25 29.0019 196.706 29.5807C196.187 30.1596 195.734 30.8264 195.345 31.5814C194.981 32.3112 194.8 33.1542 194.8 34.1105C194.8 34.8151 195.046 35.4065 195.539 35.8846C196.032 36.3628 196.642 36.6019 197.367 36.6019C197.705 36.6019 198.028 36.5264 198.34 36.3754C198.677 36.1993 198.961 35.9853 199.195 35.7337C199.429 35.4569 199.61 35.1549 199.74 34.8277C199.895 34.4754 199.973 34.1231 199.973 33.7707V27.0893Z" fill="black"/>
<path d="M137.891 33.2474C137.891 34.1161 137.762 34.9586 137.503 35.7746C137.27 36.5906 136.895 37.3146 136.377 37.9463C135.86 38.5782 135.2 39.0783 134.398 39.4469C133.622 39.8154 132.691 39.9997 131.604 39.9997C130.725 39.9997 129.91 39.8418 129.159 39.5259C128.434 39.2363 127.801 38.8283 127.257 38.3017C126.714 37.7752 126.287 37.1435 125.977 36.4063C125.692 35.6429 125.55 34.8005 125.55 33.8792V32.1812L129.043 32.971V33.8792C129.043 34.6426 129.301 35.2612 129.819 35.735C130.336 36.209 130.971 36.4459 131.721 36.4459C132.471 36.4459 133.091 36.2221 133.583 35.7746C134.074 35.3007 134.32 34.6689 134.32 33.8792C134.32 33.2737 134.23 32.7473 134.048 32.2997C133.894 31.8258 133.674 31.4046 133.389 31.0361C132.717 30.2463 131.941 29.5224 131.06 28.8643C130.207 28.2062 129.392 27.4954 128.616 26.7319C127.866 25.9423 127.218 25.0603 126.675 24.0863C126.157 23.1123 125.899 21.9145 125.899 20.493C125.899 19.6243 126.042 18.8081 126.326 18.0447C126.611 17.2813 127.012 16.6232 127.529 16.0704C128.072 15.5175 128.706 15.0832 129.431 14.7673C130.155 14.4514 130.958 14.2935 131.837 14.2935C132.743 14.2935 133.544 14.4514 134.243 14.7673C134.942 15.0832 135.524 15.5175 135.99 16.0704C136.481 16.6232 136.844 17.2813 137.076 18.0447C137.335 18.7819 137.464 19.5847 137.464 20.4535V22.1514L134.087 21.3616V20.4535C134.087 19.769 133.868 19.1635 133.428 18.637C132.989 18.1106 132.419 17.8473 131.721 17.8473C130.971 17.8473 130.388 18.1238 129.975 18.6765C129.56 19.2031 129.353 19.8217 129.353 20.5324C129.353 21.3486 129.56 22.0856 129.975 22.7437C130.414 23.3756 130.945 23.9941 131.565 24.5996C132.186 25.1787 132.872 25.7712 133.622 26.3765C134.372 26.9558 135.058 27.5875 135.679 28.272C136.3 28.9301 136.818 29.6672 137.231 30.4833C137.671 31.2994 137.891 32.2207 137.891 33.2474Z" fill="black"/>
<path d="M151.032 33.8792C151.032 34.7215 150.877 35.5245 150.567 36.2879C150.282 37.025 149.868 37.67 149.325 38.2228C148.808 38.7757 148.186 39.2099 147.462 39.5259C146.738 39.8418 145.961 39.9997 145.133 39.9997C144.305 39.9997 143.53 39.8418 142.805 39.5259C142.08 39.2099 141.447 38.7757 140.903 38.2228C140.386 37.67 139.971 37.025 139.662 36.2879C139.377 35.5245 139.234 34.7215 139.234 33.8792V20.4535C139.234 19.6111 139.39 18.8213 139.701 18.0842C140.01 17.3208 140.438 16.6627 140.981 16.1098C141.524 15.5571 142.158 15.1227 142.882 14.8067C143.633 14.4646 144.435 14.2935 145.289 14.2935C146.09 14.2935 146.853 14.4514 147.579 14.7673C148.329 15.0569 148.975 15.4912 149.519 16.0704C150.062 16.6495 150.489 17.3602 150.8 18.2027C151.136 19.0188 151.304 19.9401 151.304 20.9668C151.304 22.6253 151.136 24.0205 150.8 25.1525C150.489 26.2845 149.984 27.2848 149.286 28.1536C148.588 28.9959 147.695 29.7724 146.609 30.4833C145.522 31.1677 144.228 31.9048 142.728 32.6945V33.8792C142.728 34.6163 142.947 35.2349 143.387 35.735C143.827 36.209 144.409 36.4459 145.133 36.4459C145.833 36.4459 146.401 36.209 146.842 35.735C147.307 35.2349 147.54 34.6163 147.54 33.8792V33.4843L151.032 32.2997V33.8792ZM147.812 21.1643C147.812 19.9269 147.553 19.0714 147.035 18.5976C146.544 18.0974 145.961 17.8473 145.289 17.8473C144.565 17.8473 143.956 18.1106 143.465 18.637C142.973 19.1373 142.728 19.7428 142.728 20.4535V28.6274C143.789 28.1008 144.642 27.5613 145.289 27.0084C145.961 26.4556 146.479 25.8764 146.842 25.2709C147.229 24.6655 147.488 24.0337 147.618 23.3756C147.747 22.6911 147.812 21.954 147.812 21.1643Z" fill="black"/>
<path fill-rule="evenodd" clip-rule="evenodd" d="M172.62 17.0098C173.228 17.0091 174.439 17.0091 175.045 17.0091C175.65 17.0091 175.65 17.0091 175.65 17.0091C175.65 17.0091 175.65 17.0091 175.65 16.0117C175.65 15.0143 175.65 13.0196 175.572 11.6948C175.495 10.37 175.339 9.71519 175.069 9.10063C174.8 8.48611 174.416 7.91184 174.019 7.41765C173.622 6.92343 173.212 6.50929 172.688 6.15165C172.165 5.79401 171.527 5.49288 170.587 5.34233C169.647 5.19174 168.405 5.19174 167.447 5.26678C166.49 5.34178 165.815 5.49179 165.151 5.82509C164.487 6.15839 163.832 6.67496 163.307 7.36057C162.782 8.04618 162.386 8.90083 162.157 9.88732C161.928 10.8738 161.866 11.992 161.819 14.6869C161.772 17.3819 161.741 21.6534 161.738 25.2702C161.734 28.8869 161.758 31.8488 161.861 33.6717C161.964 35.4946 162.145 36.1785 162.502 36.8334C162.858 37.4882 163.389 38.1139 163.976 38.6232C164.562 39.1326 165.206 39.5254 166.025 39.7471C166.844 39.9687 167.84 40.0191 168.763 39.9939C169.686 39.9688 170.537 39.868 171.312 39.5681C172.087 39.2683 172.787 38.7693 173.381 38.1563C173.975 37.5433 174.463 36.8163 174.746 36.0684C175.03 35.3205 175.108 34.5517 175.148 33.2455C175.187 31.9394 175.187 30.0957 175.197 29.1739C175.206 28.2521 175.226 28.2521 175.236 28.2521C175.246 28.2521 175.246 28.2521 174.686 28.2571C174.125 28.2622 173.005 28.2723 172.445 28.2773C171.885 28.2824 171.885 28.2823 171.885 28.2823C171.885 28.2823 171.885 28.2823 171.901 29.3502C171.916 30.4181 171.947 32.5539 171.89 33.8031C171.833 35.0523 171.688 35.415 171.481 35.7424C171.273 36.0699 171.003 36.362 170.666 36.5836C170.329 36.8053 169.925 36.9564 169.391 37.0269C168.856 37.0974 168.193 37.0874 167.674 36.9866C167.155 36.8859 166.782 36.6944 166.512 36.5232C166.243 36.3519 166.077 36.2008 165.926 36.0515C165.774 35.9022 165.638 35.7547 165.523 35.4948C165.408 35.235 165.316 34.8627 165.275 30.9217C165.234 26.9808 165.246 19.4713 165.257 15.5099C165.268 11.5486 165.278 11.1356 165.351 10.7628C165.423 10.3901 165.558 10.0576 165.724 9.77554C165.89 9.49345 166.087 9.26173 166.31 9.06531C166.533 8.86884 166.782 8.70767 167.072 8.58679C167.363 8.4659 167.695 8.38528 168.094 8.35003C168.493 8.31478 168.96 8.32486 169.385 8.41049C169.811 8.49612 170.194 8.65729 170.531 8.88901C170.869 9.12072 171.159 9.42294 171.398 9.76045C171.636 10.098 171.823 10.4707 171.923 11.5537C172.022 12.6367 172.035 14.43 172.036 15.4583C172.038 16.4866 172.027 16.7501 172.019 16.8818C172.011 17.0135 172.006 17.0135 172.006 17.0128C172.006 17.012 172.012 17.0105 172.62 17.0098L172.62 17.0098Z" fill="black" stroke="black" stroke-width="0.00786998" stroke-miterlimit="2.61313"/>
<path fill-rule="evenodd" clip-rule="evenodd" d="M177.992 8.71417C178.525 8.71939 179.578 8.71939 180.105 8.71939C180.631 8.71939 180.631 8.71939 180.631 8.7148C180.631 8.71021 180.631 8.70102 180.627 10.1198C180.622 11.5385 180.613 14.3852 180.609 15.7911C180.604 17.1971 180.604 17.1624 180.753 17.0028C180.902 16.8432 181.201 16.5587 181.493 16.3437C181.785 16.1288 182.071 15.9835 182.389 15.8719C182.707 15.7603 183.058 15.6826 183.496 15.6486C183.934 15.6145 184.459 15.6242 184.98 15.681C185.502 15.7379 186.021 15.8419 186.518 16.0573C187.016 16.2728 187.493 16.5997 187.909 16.9877C188.325 17.3758 188.679 17.825 188.927 18.2975C189.174 18.7699 189.315 19.2656 189.394 19.7841C189.473 20.3027 189.49 20.8442 189.507 24.2128C189.525 27.5813 189.543 33.7768 189.552 36.87C189.562 39.9632 189.561 39.954 189.561 39.9494C189.561 39.9448 189.562 39.9448 189.071 39.9402C188.581 39.9356 187.601 39.9264 187.111 39.9218C186.621 39.9173 186.621 39.9173 186.621 39.9173C186.621 39.9173 186.621 39.9173 186.635 36.887C186.649 33.8567 186.676 27.7961 186.673 24.5933C186.669 21.3905 186.634 21.0454 186.574 20.7447C186.514 20.4439 186.429 20.1874 186.294 19.951C186.16 19.7145 185.976 19.498 185.766 19.3045C185.556 19.111 185.319 18.9404 184.965 18.8281C184.61 18.7158 184.138 18.6618 183.694 18.6572C183.249 18.6526 182.833 18.6975 182.448 18.8214C182.063 18.9453 181.708 19.1482 181.44 19.3977C181.173 19.6472 180.992 19.9432 180.853 20.326C180.714 20.7087 180.618 21.1782 180.574 24.4716C180.53 27.765 180.539 33.8824 180.543 36.9412C180.548 39.9999 180.548 39.9999 180.548 39.9999C180.548 39.9999 180.548 39.9999 180.021 39.9953C179.494 39.9907 178.441 39.9815 177.914 39.9769C177.388 39.9723 177.388 39.9723 177.388 39.9723C177.388 39.9723 177.388 39.9723 177.397 34.761C177.406 29.5497 177.425 19.127 177.433 13.913C177.441 8.69887 177.438 8.69339 177.442 8.6959C177.447 8.69838 177.459 8.70895 177.992 8.71417Z" fill="black"/>
<path fill-rule="evenodd" clip-rule="evenodd" d="M231.5 23.4989C231.5 22.6709 232.172 21.9989 233 21.9989C233.828 21.9989 234.5 22.6709 234.5 23.4989C234.5 24.3269 233.828 24.9989 233 24.9989C232.172 24.9989 231.5 24.3269 231.5 23.4989ZM239 21.9989C238.172 21.9989 237.5 22.6709 237.5 23.4989C237.5 24.3269 238.172 24.9989 239 24.9989C239.828 24.9989 240.5 24.3269 240.5 23.4989C240.5 22.6709 239.828 21.9989 239 21.9989ZM245 21.9989C244.172 21.9989 243.5 22.6709 243.5 23.4989C243.5 24.3269 244.172 24.9989 245 24.9989C245.828 24.9989 246.5 24.3269 246.5 23.4989C246.5 22.6709 245.828 21.9989 245 21.9989ZM250.848 25.4413C250.087 30.3223 246.153 34.3708 241.279 35.2843C238.926 35.7283 236.529 35.4748 234.354 34.5538C233.737 34.2928 233.1 34.1608 232.474 34.1608C232.189 34.1608 231.907 34.1878 231.63 34.2433L227.412 35.0863L228.256 30.8608C228.433 29.9833 228.325 29.0443 227.946 28.1458C227.025 25.9708 226.773 23.5753 227.215 21.2203C228.129 16.3468 232.176 12.4123 237.058 11.6518V11.6518C240.943 11.0473 244.743 12.2713 247.485 15.0133C250.228 17.7568 251.454 21.5578 250.848 25.4413M249.607 12.8923C246.18 9.46626 241.44 7.93776 236.596 8.68626C230.481 9.64026 225.411 14.5663 224.266 20.6668C223.714 23.6038 224.032 26.5948 225.183 29.3143C225.328 29.6608 225.373 29.9833 225.316 30.2728L224.029 36.7048C223.93 37.1968 224.085 37.7053 224.44 38.0593C224.724 38.3443 225.106 38.4988 225.501 38.4988C225.598 38.4988 225.696 38.4898 225.795 38.4703L232.219 37.1848C232.588 37.1143 232.945 37.2178 233.184 37.3168C235.906 38.4673 238.897 38.7838 241.831 38.2333C247.933 37.0888 252.859 32.0188 253.813 25.9033C254.566 21.0628 253.035 16.3198 249.607 12.8923" fill="black"/>
<mask id="mask0_638_979" style="mask-type:alpha" maskUnits="userSpaceOnUse" x="224" y="8" width="31" height="31">
<path fill-rule="evenodd" clip-rule="evenodd" d="M231.5 23.4989C231.5 22.6709 232.172 21.9989 233 21.9989C233.828 21.9989 234.5 22.6709 234.5 23.4989C234.5 24.3269 233.828 24.9989 233 24.9989C232.172 24.9989 231.5 24.3269 231.5 23.4989ZM239 21.9989C238.172 21.9989 237.5 22.6709 237.5 23.4989C237.5 24.3269 238.172 24.9989 239 24.9989C239.828 24.9989 240.5 24.3269 240.5 23.4989C240.5 22.6709 239.828 21.9989 239 21.9989ZM245 21.9989C244.172 21.9989 243.5 22.6709 243.5 23.4989C243.5 24.3269 244.172 24.9989 245 24.9989C245.828 24.9989 246.5 24.3269 246.5 23.4989C246.5 22.6709 245.828 21.9989 245 21.9989ZM250.848 25.4413C250.087 30.3223 246.153 34.3708 241.279 35.2843C238.926 35.7283 236.529 35.4748 234.354 34.5538C233.737 34.2928 233.1 34.1608 232.474 34.1608C232.189 34.1608 231.907 34.1878 231.63 34.2433L227.412 35.0863L228.256 30.8608C228.433 29.9833 228.325 29.0443 227.946 28.1458C227.025 25.9708 226.773 23.5753 227.215 21.2203C228.129 16.3468 232.176 12.4123 237.058 11.6518V11.6518C240.943 11.0473 244.743 12.2713 247.485 15.0133C250.228 17.7568 251.454 21.5578 250.848 25.4413M249.607 12.8923C246.18 9.46626 241.44 7.93776 236.596 8.68626C230.481 9.64026 225.411 14.5663 224.266 20.6668C223.714 23.6038 224.032 26.5948 225.183 29.3143C225.328 29.6608 225.373 29.9833 225.316 30.2728L224.029 36.7048C223.93 37.1968 224.085 37.7053 224.44 38.0593C224.724 38.3443 225.106 38.4988 225.501 38.4988C225.598 38.4988 225.696 38.4898 225.795 38.4703L232.219 37.1848C232.588 37.1143 232.945 37.2178 233.184 37.3168C235.906 38.4673 238.897 38.7838 241.831 38.2333C247.933 37.0888 252.859 32.0188 253.813 25.9033C254.566 21.0628 253.035 16.3198 249.607 12.8923" fill="white"/>
</mask>
<g mask="url(#mask0_638_979)">
<rect x="221" y="7" width="36" height="36" fill="black"/>
</g>
</svg>
